<?xml version="1.0" standalone="no"?>
<!DOCTYPE svg PUBLIC "-//W3C//DTD SVG 20010904//EN"
 "http://www.w3.org/TR/2001/REC-SVG-20010904/DTD/svg10.dtd">
<svg version="1.0" xmlns="http://www.w3.org/2000/svg"
 width="1000.000000pt" height="1000.000000pt" viewBox="0 0 1000.000000 1000.000000"
 preserveAspectRatio="xMidYMid meet">
<metadata>
Created by potrace 1.11, written by Peter Selinger 2001-2013
</metadata>
<g transform="translate(0.000000,1000.000000) scale(0.100000,-0.100000)"
fill="#000000" stroke="none">
<path d="M5112 9057 c-11 -13 -160 -16 -179 -4 -5 3 -15 2 -23 -3 -9 -5 -19
-5 -26 1 -8 7 -14 6 -19 -1 -5 -8 -11 -7 -23 2 -12 10 -14 10 -8 1 5 -10 -3
-12 -33 -11 -26 1 -38 5 -34 12 4 6 -1 5 -10 -2 -9 -8 -21 -11 -26 -8 -5 4
-13 1 -16 -4 -5 -8 -14 -5 -27 7 -14 13 -19 14 -16 3 2 -8 -5 -15 -17 -16
-158 -12 -190 -16 -194 -19 -2 -3 -11 1 -19 8 -13 9 -14 9 -8 0 5 -9 -1 -13
-21 -14 -15 -1 -39 -4 -53 -6 -14 -2 -38 -6 -55 -8 -16 -2 -30 -4 -30 -5 0 -2
-24 -7 -70 -15 -22 -4 -67 -13 -100 -20 -107 -25 -120 -27 -145 -29 -14 0 -31
-6 -37 -13 -7 -6 -26 -10 -42 -9 -16 1 -28 -1 -25 -5 2 -4 -8 -10 -24 -15 -15
-4 -29 -8 -32 -9 -82 -25 -93 -26 -102 -13 -7 9 -8 8 -4 -6 5 -15 2 -17 -14
-13 -11 3 -18 1 -15 -3 5 -8 -86 -45 -110 -45 -5 0 -12 -2 -15 -5 -3 -3 -22
-13 -43 -23 -25 -11 -36 -13 -31 -5 4 7 -1 6 -12 -3 -20 -17 -63 -35 -76 -31
-5 1 -8 -2 -8 -7 0 -10 -27 -21 -44 -20 -5 0 -12 -3 -15 -8 -8 -11 -194 -103
-209 -103 -6 0 -12 -4 -12 -9 0 -5 -21 -19 -47 -32 -27 -12 -50 -26 -53 -29
-12 -16 -50 -29 -67 -24 -12 4 -14 3 -5 -3 9 -7 1 -17 -30 -37 -32 -21 -43
-24 -51 -14 -7 10 -8 10 -4 -2 5 -16 -17 -43 -27 -33 -3 4 -6 0 -6 -7 0 -7 -3
-11 -6 -8 -3 3 -17 -5 -31 -18 -14 -13 -28 -22 -31 -19 -3 3 -11 -4 -19 -15
-14 -20 -40 -29 -28 -10 3 6 4 10 0 10 -3 0 -9 -8 -13 -19 -4 -10 -38 -42 -77
-72 -38 -29 -76 -58 -83 -64 -8 -5 -24 -20 -36 -32 -18 -18 -25 -20 -35 -10
-10 9 -11 9 -6 -4 4 -11 -3 -24 -19 -36 -43 -35 -166 -146 -214 -196 -26 -27
-52 -45 -59 -42 -8 3 -11 0 -8 -6 9 -13 -25 -50 -38 -42 -5 3 -7 1 -4 -4 4 -6
-20 -39 -53 -73 -33 -35 -60 -67 -60 -72 0 -4 -7 -8 -15 -8 -8 0 -14 -3 -13
-7 3 -9 -21 -40 -63 -84 -15 -16 -24 -30 -22 -33 3 -2 -4 -11 -16 -18 -12 -7
-21 -17 -21 -21 0 -5 -12 -24 -26 -43 -23 -29 -29 -32 -43 -22 -14 12 -14 11
-3 -4 15 -19 8 -38 -13 -38 -9 0 -12 -6 -9 -15 4 -8 -1 -17 -10 -21 -9 -3 -16
-12 -16 -18 0 -7 -8 -21 -18 -32 -10 -10 -28 -36 -41 -56 -12 -21 -28 -38 -33
-38 -6 0 -8 -3 -5 -6 4 -4 -4 -21 -16 -38 -12 -17 -22 -35 -22 -41 -1 -5 -7
-9 -14 -7 -7 1 -9 -2 -5 -9 3 -6 3 -14 -2 -18 -5 -3 -18 -23 -28 -43 -10 -21
-23 -35 -29 -31 -6 3 -7 1 -3 -5 9 -14 -12 -55 -24 -47 -5 3 -12 0 -16 -6 -5
-8 -3 -9 5 -4 9 5 12 2 9 -11 -2 -11 -10 -18 -17 -16 -7 1 -10 -2 -7 -7 9 -13
-58 -143 -69 -134 -4 5 -5 3 -2 -3 9 -15 -27 -96 -38 -86 -5 4 -5 1 -1 -5 10
-17 -12 -55 -27 -47 -9 5 -9 4 -1 -5 9 -9 6 -23 -9 -54 -12 -23 -22 -50 -24
-60 -2 -10 -12 -37 -22 -60 -26 -58 -37 -94 -40 -123 0 -8 -5 -12 -11 -9 -6 3
-7 -1 -4 -10 4 -8 2 -21 -4 -28 -6 -6 -11 -15 -11 -19 -7 -43 -15 -67 -22 -62
-5 3 -6 -2 -3 -11 8 -20 -4 -67 -15 -60 -5 3 -7 -3 -5 -12 5 -20 -30 -166 -37
-158 -3 2 -4 -8 -3 -23 1 -15 -3 -38 -8 -52 -6 -14 -11 -46 -13 -72 -2 -26 -6
-52 -10 -58 -4 -7 -9 -31 -11 -54 -5 -66 -14 -139 -19 -164 -4 -25 -18 -220
-19 -284 0 -21 -4 -38 -9 -38 -4 0 -6 -3 -4 -7 3 -5 7 -117 8 -250 2 -134 6
-243 9 -243 3 0 6 -15 6 -32 1 -42 12 -146 18 -178 3 -14 7 -45 10 -70 2 -25
12 -83 21 -129 10 -45 18 -102 19 -126 0 -24 4 -41 9 -38 7 4 9 -11 10 -64 1
-12 5 -19 10 -16 5 3 7 0 5 -8 -3 -8 1 -25 8 -39 7 -15 14 -39 17 -55 2 -17 6
-37 10 -45 18 -48 28 -93 23 -106 -3 -8 -2 -13 3 -10 11 7 33 -52 25 -65 -3
-5 -1 -9 3 -9 9 0 39 -89 35 -102 -1 -5 3 -8 10 -8 6 0 9 -3 5 -6 -3 -3 3 -22
13 -42 18 -35 41 -91 42 -102 0 -3 9 -22 19 -43 11 -21 17 -43 13 -49 -4 -6
-3 -8 3 -5 14 9 37 -48 27 -64 -4 -8 -3 -10 4 -5 7 4 19 -9 32 -34 11 -22 17
-40 13 -40 -5 0 -3 -4 3 -8 7 -4 26 -34 43 -67 18 -33 43 -78 55 -100 13 -22
22 -44 18 -50 -3 -5 -2 -7 3 -3 7 7 55 -52 55 -67 0 -4 7 -13 16 -22 8 -9 13
-22 10 -29 -3 -7 0 -16 6 -20 7 -5 8 -2 4 7 -4 8 2 3 13 -11 20 -24 25 -36 22
-53 -1 -5 3 -6 8 -3 4 3 21 -13 36 -37 15 -23 36 -52 47 -64 11 -12 17 -26 14
-32 -4 -7 -1 -8 8 -5 10 4 16 1 16 -9 0 -8 15 -31 33 -49 17 -19 46 -52 62
-73 17 -21 50 -61 75 -88 106 -117 118 -132 113 -141 -3 -5 -2 -6 4 -3 5 3 45
-31 90 -77 44 -46 88 -86 97 -89 10 -4 14 -11 11 -17 -3 -5 -2 -10 3 -10 17 0
92 -72 85 -83 -3 -5 -2 -7 4 -4 13 8 55 -22 47 -34 -3 -5 -2 -9 3 -8 20 3 34
-2 28 -11 -3 -5 0 -10 7 -10 8 0 31 -16 51 -35 20 -19 41 -35 45 -35 15 0 42
-36 35 -45 -5 -4 -2 -5 6 0 9 5 19 2 28 -10 7 -11 13 -15 13 -11 0 4 26 -12
58 -36 55 -42 98 -72 131 -93 9 -5 30 -20 48 -32 17 -13 37 -23 43 -23 6 0 15
-10 20 -22 5 -13 9 -18 9 -11 1 12 102 -44 109 -60 2 -4 8 -5 13 -1 5 3 9 -3
9 -13 0 -14 2 -15 9 -4 7 11 13 9 30 -8 11 -11 21 -18 21 -15 0 4 7 1 15 -6 8
-7 15 -9 15 -4 0 5 4 4 8 -2 4 -5 25 -18 47 -29 22 -10 46 -25 53 -34 8 -9 11
-10 7 -3 -9 17 10 15 25 -3 7 -8 16 -12 21 -9 5 3 9 1 9 -4 0 -5 6 -9 13 -10
25 -2 196 -76 191 -83 -2 -4 5 -5 16 -2 11 3 20 0 20 -6 0 -6 3 -10 8 -10 23
4 52 -3 64 -14 7 -8 19 -12 26 -9 6 2 12 -1 12 -8 0 -6 4 -9 9 -6 11 7 124
-28 115 -36 -3 -4 4 -4 17 -1 15 4 20 3 15 -5 -5 -8 -2 -10 8 -6 9 3 24 3 34
-1 9 -5 26 -10 37 -12 11 -2 57 -12 102 -23 45 -11 89 -20 98 -20 9 0 14 -3
11 -8 -2 -4 8 -8 22 -8 86 -3 93 -4 86 -16 -4 -6 -3 -8 4 -4 13 8 123 -4 118
-13 -2 -3 18 -6 45 -5 27 0 49 -2 49 -6 0 -4 12 -5 26 -2 16 3 30 -1 35 -9 7
-11 9 -11 9 -1 0 7 4 11 9 7 10 -5 177 -17 256 -17 22 0 48 -5 59 -10 13 -7
16 -7 12 1 -4 6 -2 11 3 11 6 0 11 -6 11 -12 0 -10 2 -10 8 -1 5 7 13 9 21 3
8 -4 25 -4 38 1 18 6 22 6 17 -3 -5 -7 -3 -8 7 -3 18 12 141 13 156 3 6 -5 14
-4 18 2 5 8 11 7 23 -2 12 -10 14 -10 8 0 -5 9 5 12 41 13 56 1 142 6 231 15
45 4 68 2 80 -8 16 -12 16 -11 2 6 -14 18 -13 19 7 14 13 -4 25 -3 27 1 5 7
47 12 116 15 19 0 37 4 40 7 3 4 20 10 39 14 27 6 32 4 25 -6 -6 -11 -5 -12 7
-3 24 20 119 43 119 30 0 -8 3 -7 8 1 4 7 22 14 39 18 18 3 43 9 57 15 15 5
26 8 26 5 0 -2 18 2 41 10 23 8 45 12 50 9 5 -3 9 -1 9 4 0 6 24 16 53 23 28
7 54 14 57 14 3 1 12 5 20 8 63 27 185 65 193 60 6 -4 7 -1 2 7 -5 8 -3 11 6
8 8 -3 20 2 27 9 11 11 17 11 28 2 12 -10 13 -9 8 5 -4 12 -1 16 14 16 12 0
23 4 26 9 3 5 18 12 33 16 15 3 30 10 33 15 3 4 14 10 25 12 11 1 22 6 25 9 3
4 32 20 65 36 33 16 90 46 128 67 59 33 70 36 85 25 15 -12 16 -12 4 2 -10 14
-4 21 48 53 33 21 65 34 72 30 7 -4 8 -3 4 4 -6 11 31 38 47 34 4 -1 7 2 7 7
0 14 68 53 80 46 6 -4 9 -1 8 7 -2 7 3 12 10 10 8 -1 11 2 7 7 -3 6 5 15 17
22 13 7 25 15 28 18 18 21 82 61 90 56 6 -4 9 -1 8 7 -2 7 4 12 12 10 8 -2 12
-1 8 3 -7 7 15 35 27 35 4 0 16 11 27 25 11 14 25 25 33 25 7 0 15 7 19 15 3
8 13 15 21 15 10 0 13 5 9 12 -5 8 -2 9 9 5 10 -4 16 -2 14 6 -1 7 4 11 11 9
8 -1 11 2 8 7 -8 12 43 53 57 44 5 -3 7 -2 4 4 -8 13 161 175 175 167 6 -4 8
-3 4 4 -6 10 12 32 129 156 39 42 111 128 144 171 14 19 31 32 38 30 7 -2 10
2 7 10 -3 8 5 25 18 38 12 13 29 35 37 49 7 14 26 40 41 57 15 16 25 32 22 35
-3 3 -1 6 5 6 6 0 16 14 23 31 8 18 18 28 26 25 8 -3 11 0 8 8 -3 7 1 20 9 27
7 8 15 19 18 24 2 6 8 9 12 7 5 -1 5 2 2 8 -4 6 1 18 11 25 11 8 15 15 10 15
-5 0 -1 9 9 20 10 11 14 20 10 20 -4 0 1 8 11 17 10 10 20 25 22 33 2 8 9 22
16 30 7 8 18 30 26 47 7 20 17 30 24 26 6 -3 8 -3 4 2 -4 4 8 38 27 74 43 84
106 222 130 283 10 27 22 45 28 41 6 -3 7 -1 3 6 -9 14 13 83 24 76 4 -3 6 4
3 15 -3 11 -1 20 4 20 5 0 9 8 10 18 2 27 57 197 65 200 4 2 4 10 1 18 -3 8 3
22 13 30 11 9 13 12 5 8 -10 -5 -11 -1 -6 17 11 33 25 88 31 124 3 17 9 32 12
35 4 3 8 16 9 30 1 14 4 37 7 53 15 69 17 83 17 100 0 9 3 17 7 17 4 0 7 15 8
32 2 72 4 79 17 72 9 -6 9 -4 -1 8 -7 8 -10 22 -7 29 6 15 13 77 14 122 1 20
5 26 14 21 9 -6 9 -4 1 7 -5 8 -9 30 -7 49 1 19 5 60 8 90 11 133 6 569 -8
672 -3 15 0 25 4 22 5 -3 9 -1 9 5 0 5 -4 11 -9 13 -4 2 -11 30 -15 63 -3 33
-8 74 -10 90 -3 17 -7 48 -10 70 -3 22 -8 54 -12 70 -3 17 -7 44 -9 60 -1 17
-5 37 -9 45 -3 8 -7 31 -8 50 -2 19 -5 37 -9 40 -7 7 -30 99 -32 135 -1 17 -5
32 -8 35 -11 10 -36 99 -26 93 6 -3 3 4 -6 18 -20 28 -22 43 -4 34 6 -4 5 -1
-3 7 -9 7 -29 51 -45 98 -15 47 -41 117 -58 155 -16 39 -30 80 -31 92 0 11 -4
19 -7 17 -7 -4 -75 147 -71 159 1 4 -2 7 -6 7 -12 0 -44 59 -37 70 3 6 2 10
-4 10 -15 0 -43 58 -35 73 4 7 3 9 -1 4 -10 -8 -46 43 -39 55 3 4 0 8 -6 8 -6
0 -9 4 -6 9 3 5 -1 11 -9 15 -8 3 -15 12 -15 20 0 8 -4 16 -9 18 -5 2 -11 9
-13 17 -2 8 -11 23 -20 33 -10 10 -18 25 -18 33 0 8 -4 15 -8 15 -5 0 -15 12
-23 28 -8 15 -18 32 -24 39 -5 7 -16 19 -23 28 -7 8 -10 15 -6 15 4 0 -2 8
-12 18 -23 21 -77 92 -70 92 3 0 -6 11 -20 25 -15 15 -22 30 -18 38 4 6 4 9
-1 5 -4 -4 -14 0 -22 8 -13 12 -13 17 -1 32 12 15 11 16 -5 3 -9 -8 -19 -12
-20 -10 -2 2 -13 18 -25 35 -12 17 -35 46 -52 64 -16 17 -27 37 -23 43 3 5 1
7 -4 4 -6 -4 -16 0 -23 8 -7 8 -9 15 -4 16 5 0 -2 5 -15 10 -14 6 -21 15 -18
24 4 10 1 12 -10 8 -13 -5 -15 -2 -10 11 4 9 3 15 -2 12 -10 -7 -53 38 -46 47
3 4 2 5 -1 3 -3 -3 -29 19 -58 47 -29 29 -90 87 -137 131 -46 43 -83 83 -81
88 1 5 -2 7 -8 3 -5 -3 -10 -1 -10 6 0 7 -3 10 -6 6 -3 -3 -16 4 -29 16 -12
12 -39 35 -59 51 -19 16 -33 33 -29 39 3 6 1 7 -4 4 -14 -9 -65 32 -57 45 4 7
2 8 -4 4 -15 -9 -64 23 -55 37 3 6 1 7 -5 3 -7 -4 -12 -2 -12 4 0 6 -4 9 -9 5
-5 -3 -16 3 -23 13 -7 11 -17 20 -23 22 -5 1 -9 6 -7 12 1 5 -2 7 -8 3 -12 -7
-42 13 -36 24 3 4 -4 7 -14 8 -22 2 -106 62 -103 74 2 4 -3 6 -10 4 -6 -3 -36
11 -65 30 -30 19 -57 35 -61 35 -4 0 -18 10 -31 23 -14 12 -27 22 -30 22 -3 0
-4 4 -2 8 1 5 -2 6 -8 2 -12 -7 -70 16 -70 27 0 5 -6 7 -12 6 -8 -2 -12 5 -11
17 1 11 0 14 -3 8 -7 -15 -34 -17 -34 -3 0 5 -15 13 -32 18 -18 5 -32 15 -30
21 1 7 -1 10 -6 7 -12 -7 -72 16 -72 27 0 4 -4 5 -10 2 -5 -3 -10 -1 -10 4 0
6 -3 10 -7 9 -16 -4 -92 25 -87 33 3 5 -3 6 -12 2 -14 -5 -16 -3 -10 13 5 14
4 16 -5 7 -12 -12 -69 2 -69 17 0 4 -6 7 -12 7 -21 -2 -129 34 -124 41 2 4 -6
8 -17 8 -12 1 -31 4 -42 7 -11 3 -26 6 -33 6 -7 1 -11 5 -8 9 2 4 -3 8 -12 8
-29 1 -76 11 -106 23 -16 7 -41 14 -55 16 -14 3 -55 12 -91 20 -36 9 -74 18
-85 20 -11 1 -49 8 -84 15 -36 6 -73 12 -83 13 -10 1 -18 4 -18 7 0 3 -24 6
-53 8 -44 2 -92 8 -92 11 0 1 -31 3 -69 6 -42 2 -72 9 -77 17 -7 10 -9 10 -9
1 0 -7 -7 -13 -15 -13 -8 0 -15 6 -15 13 0 8 -3 8 -8 1 -4 -6 -20 -9 -37 -8
-16 2 -60 4 -97 6 -54 2 -65 5 -56 15 6 7 8 13 5 13 -2 0 -9 -6 -15 -13z
m-268 -470 c11 11 160 10 168 -1 6 -8 8 -8 8 0 0 7 29 10 88 8 103 -5 227 -12
227 -14 0 -1 25 -4 55 -6 30 -2 62 -5 70 -6 8 0 18 -6 22 -12 6 -8 8 -8 8 0 0
7 10 9 25 6 14 -2 22 -9 19 -14 -4 -6 3 -5 15 1 20 11 26 8 21 -14 -1 -5 4 -4
11 3 16 15 43 16 33 0 -4 -7 -3 -8 4 -4 17 10 113 -5 105 -17 -3 -6 -1 -7 5
-3 15 9 93 -4 86 -15 -3 -5 1 -6 9 -3 21 8 220 -47 235 -65 8 -9 11 -10 7 -3
-9 17 -6 17 100 -24 11 -4 22 -8 25 -8 27 -6 137 -52 142 -60 4 -6 8 -8 8 -4
0 4 35 -9 78 -27 42 -19 76 -39 74 -45 -1 -7 2 -8 8 -5 6 4 25 1 41 -5 21 -9
28 -18 24 -29 -5 -12 -3 -13 6 -4 14 14 42 6 32 -10 -3 -6 -1 -7 5 -3 16 10
54 -12 46 -26 -4 -7 -3 -8 4 -4 7 4 44 -12 84 -36 40 -24 85 -49 101 -57 15
-7 27 -17 27 -22 0 -5 7 -9 15 -9 9 0 18 -7 21 -15 4 -8 10 -12 15 -9 5 3 9 0
9 -5 0 -6 6 -11 13 -11 6 0 24 -10 39 -23 56 -47 63 -53 73 -56 6 -2 8 -8 7
-15 -2 -6 0 -8 3 -4 6 6 96 -55 145 -99 8 -7 34 -30 57 -49 24 -20 40 -41 36
-47 -3 -6 -1 -7 5 -3 14 9 153 -123 145 -138 -3 -6 -2 -8 2 -3 5 4 24 -7 42
-25 27 -26 31 -34 20 -47 -11 -14 -10 -14 5 -2 15 11 19 11 24 -3 3 -9 10 -13
15 -10 5 3 9 1 9 -4 0 -4 13 -21 28 -38 15 -16 57 -63 92 -104 35 -41 72 -84
82 -94 17 -19 22 -31 19 -49 -1 -5 3 -6 8 -3 13 8 211 -266 211 -292 0 -6 4
-12 8 -14 4 -1 22 -27 40 -56 18 -30 27 -50 20 -46 -7 4 -3 -3 10 -15 20 -20
26 -34 23 -53 0 -5 3 -8 7 -8 8 0 36 -51 32 -59 -1 -2 2 -7 7 -10 10 -7 47
-82 48 -96 0 -5 3 -12 7 -15 14 -11 48 -102 41 -112 -3 -7 -1 -8 5 -4 11 6 15
-5 11 -30 0 -4 5 -10 11 -14 7 -4 13 -19 13 -33 1 -14 5 -23 10 -20 4 2 8 -3
8 -11 1 -9 3 -19 4 -23 12 -36 18 -59 16 -62 -2 -2 1 -7 6 -10 12 -8 48 -130
47 -158 0 -12 4 -20 8 -17 4 3 8 2 8 -3 0 -4 3 -19 7 -32 5 -19 3 -22 -8 -17
-8 4 -6 1 5 -8 10 -8 16 -22 13 -31 -4 -8 -3 -15 1 -15 4 0 9 -11 10 -25 3
-36 6 -49 14 -55 4 -3 9 -28 11 -55 3 -28 7 -57 11 -65 3 -8 7 -37 8 -65 2
-27 6 -52 10 -55 4 -3 9 -38 11 -77 3 -39 7 -75 9 -80 6 -11 11 -88 12 -195 1
-49 4 -88 8 -88 4 0 6 -9 5 -20 -1 -11 -4 -20 -7 -20 -3 0 -6 -9 -6 -20 0 -11
4 -20 8 -20 11 0 6 -23 -7 -32 -6 -5 -4 -8 5 -8 13 0 13 -1 0 -10 -12 -8 -12
-10 -1 -10 10 0 11 -3 2 -14 -8 -10 -9 -16 -1 -21 6 -4 7 -12 1 -24 -6 -10 -6
-23 -1 -31 5 -8 7 -18 4 -22 -3 -4 -6 -27 -8 -51 -1 -23 -5 -48 -9 -54 -4 -6
-3 -14 2 -18 6 -3 8 -11 6 -18 -2 -7 -6 -41 -10 -77 -11 -124 -17 -155 -33
-175 -16 -19 -16 -19 2 -5 18 14 19 13 12 -5 -9 -23 -16 -58 -21 -100 -10 -87
-17 -120 -26 -123 -5 -2 -6 -8 -3 -13 3 -6 0 -17 -8 -26 -11 -14 -11 -16 1 -8
8 5 12 4 9 -1 -12 -22 -21 -51 -24 -82 -2 -18 -7 -38 -11 -45 -4 -6 -9 -23
-11 -37 -2 -13 -7 -30 -13 -36 -5 -6 -6 -14 -2 -17 3 -4 -2 -9 -11 -13 -9 -3
-16 -10 -16 -16 0 -5 4 -7 9 -4 5 4 -4 -34 -21 -84 -17 -49 -34 -88 -37 -85
-4 2 -7 -6 -6 -18 2 -21 -31 -106 -44 -117 -6 -5 -11 -20 -15 -47 -1 -7 -10
-20 -19 -31 -9 -10 -14 -22 -10 -26 5 -4 1 -13 -7 -19 -8 -7 -16 -19 -18 -27
-5 -24 -63 -134 -76 -145 -7 -5 -11 -16 -8 -24 3 -10 0 -12 -14 -7 -14 5 -16
4 -8 -4 9 -9 3 -27 -23 -71 -31 -51 -38 -58 -52 -47 -13 10 -14 10 -3 -2 14
-17 16 -34 2 -25 -6 3 -7 -1 -4 -9 4 -11 0 -16 -11 -16 -9 0 -13 -5 -10 -10 8
-13 -30 -62 -40 -52 -5 4 -5 1 -1 -6 5 -8 0 -20 -13 -31 -11 -10 -19 -20 -16
-23 2 -2 -9 -19 -25 -36 -16 -18 -30 -36 -31 -40 -5 -20 -43 -60 -52 -55 -6 3
-7 2 -4 -4 8 -12 -23 -55 -94 -133 -15 -16 -39 -45 -54 -65 -17 -21 -34 -34
-42 -31 -8 4 -11 1 -8 -5 9 -14 -25 -50 -39 -42 -6 3 -8 3 -4 -2 10 -10 -11
-37 -23 -29 -5 3 -6 -3 -2 -12 5 -13 3 -16 -10 -11 -12 4 -14 2 -10 -10 5 -12
1 -14 -18 -8 -17 4 -20 4 -10 -3 12 -9 12 -12 -1 -26 -9 -8 -18 -12 -22 -9 -3
4 -6 1 -6 -6 0 -15 -50 -57 -62 -54 -5 2 -7 -1 -5 -6 2 -10 -60 -71 -133 -130
-25 -20 -51 -41 -58 -48 -7 -7 -20 -10 -30 -7 -13 5 -14 4 -4 -4 11 -7 8 -14
-14 -31 -15 -12 -33 -20 -40 -17 -8 3 -11 0 -8 -8 4 -11 -28 -35 -32 -24 -1 2
-10 -7 -20 -18 -18 -21 -208 -154 -220 -154 -3 0 -2 5 2 12 4 7 3 8 -4 4 -7
-4 -12 -13 -12 -19 0 -15 -49 -39 -63 -30 -6 3 -7 1 -3 -5 7 -12 -47 -45 -58
-35 -3 4 -6 1 -6 -6 0 -12 -67 -47 -82 -43 -5 1 -8 -2 -8 -7 0 -10 -39 -27
-52 -23 -5 1 -8 -2 -8 -7 0 -5 -24 -19 -52 -31 -29 -12 -77 -33 -107 -47 -30
-13 -60 -22 -68 -19 -8 3 -11 1 -8 -4 5 -9 -15 -15 -37 -11 -5 0 -8 -3 -8 -8
0 -9 -48 -29 -88 -36 -9 -2 -19 -4 -22 -5 -3 -1 -8 -2 -12 -1 -5 0 -8 -4 -8
-11 0 -6 -3 -9 -6 -6 -3 4 -22 0 -41 -8 -19 -9 -38 -13 -41 -10 -3 3 -10 2
-16 -3 -12 -9 -67 -28 -106 -35 -14 -3 -38 -9 -55 -14 -16 -5 -42 -8 -57 -8
-14 1 -25 -1 -23 -4 2 -3 -16 -10 -41 -16 -27 -6 -44 -7 -44 -1 0 5 -6 4 -14
-2 -8 -7 -35 -14 -59 -15 -24 -2 -49 -6 -54 -9 -5 -3 -35 -8 -66 -11 -43 -4
-56 -2 -52 7 4 7 1 5 -7 -3 -16 -18 -6 -16 -148 -25 -63 -4 -119 -9 -124 -12
-4 -3 -12 1 -17 8 -5 8 -9 9 -9 3 0 -11 -35 -12 -46 -1 -4 4 -12 7 -18 7 -6 0
-5 -4 3 -9 9 -6 -12 -9 -60 -8 -41 1 -80 6 -88 11 -9 6 -12 5 -8 -2 8 -12 -87
-11 -99 1 -4 4 -13 2 -21 -4 -7 -6 -13 -8 -13 -3 0 5 -29 8 -65 7 -36 -1 -64
1 -61 5 2 4 -16 5 -40 3 -27 -2 -51 2 -61 10 -14 12 -16 12 -8 0 5 -9 4 -12
-3 -7 -6 4 -39 9 -74 13 -35 3 -65 8 -68 12 -3 3 -18 6 -35 7 -56 2 -120 15
-123 24 -2 6 -7 8 -12 5 -8 -5 -101 11 -130 22 -8 4 -17 7 -20 7 -3 1 -11 5
-19 10 -9 6 -12 5 -8 -1 4 -6 -25 0 -64 13 -39 13 -78 24 -86 24 -8 0 -11 5
-7 12 4 7 3 8 -5 4 -13 -8 -83 12 -77 22 2 4 -10 7 -27 8 -18 0 -52 10 -76 22
-25 12 -48 22 -52 22 -3 0 -28 10 -55 22 -27 12 -51 23 -54 23 -34 10 -79 38
-74 47 5 7 3 8 -5 4 -14 -9 -73 13 -66 24 3 4 -3 7 -13 6 -9 0 -16 4 -15 9 1
6 -11 11 -25 12 -15 0 -28 6 -30 12 -2 6 -10 11 -18 11 -8 0 -14 5 -14 10 0 6
-4 9 -8 8 -11 -4 -82 35 -82 44 0 5 -7 8 -15 8 -7 0 -18 7 -23 16 -5 9 -12 15
-15 15 -18 -2 -25 0 -45 19 -12 11 -25 21 -29 22 -23 4 -113 73 -113 87 0 14
-2 14 -10 1 -6 -9 -10 -10 -10 -3 0 6 -8 14 -17 17 -10 4 -33 20 -52 36 -18
17 -38 30 -42 30 -5 0 -9 5 -9 11 0 5 6 7 13 3 7 -4 8 -3 4 2 -5 5 -16 9 -25
9 -9 0 -16 6 -14 13 1 8 -2 11 -6 8 -5 -3 -18 2 -30 12 -11 9 -36 30 -55 46
-20 17 -33 34 -31 38 3 5 2 8 -3 7 -26 -4 -35 1 -24 15 9 11 9 16 0 22 -8 4
-9 3 -5 -4 21 -35 -23 -1 -112 84 -69 66 -99 102 -95 113 3 11 2 12 -4 4 -7
-9 -19 -2 -46 27 -20 23 -37 45 -37 50 0 6 -7 10 -15 10 -8 0 -15 3 -15 8 0 4
-10 18 -23 32 -49 55 -86 108 -79 114 4 4 2 6 -4 4 -16 -4 -65 54 -59 70 3 7
1 11 -4 8 -12 -8 -103 115 -97 131 3 7 0 12 -7 10 -7 -1 -11 6 -11 15 1 10 -2
15 -7 12 -12 -7 -95 126 -91 146 2 8 0 12 -4 7 -9 -9 -45 43 -38 55 3 4 0 8
-6 8 -6 0 -9 4 -6 9 4 5 2 11 -3 13 -16 5 -122 218 -115 230 4 6 3 8 -3 5 -10
-6 -23 23 -22 47 1 5 -5 12 -11 16 -7 4 -13 19 -13 33 -1 14 -5 23 -10 20 -4
-2 -7 0 -7 6 0 5 -5 22 -12 38 -6 15 -12 30 -13 33 -1 3 -6 16 -12 30 -31 75
-52 151 -46 166 4 12 3 15 -5 10 -7 -4 -13 -1 -13 8 -3 29 -4 34 -12 42 -12
12 -8 26 5 19 7 -4 6 -1 -2 7 -17 14 -44 114 -35 128 3 5 1 10 -5 12 -6 2 -12
19 -14 38 -2 19 -6 42 -9 50 -3 8 -8 31 -11 50 -3 19 -8 49 -12 65 -3 17 -7
44 -8 61 -1 16 -5 34 -8 40 -3 5 -5 30 -4 57 0 26 -2 48 -5 50 -9 3 -20 127
-24 285 -2 73 -7 137 -10 142 -3 6 -2 10 2 10 5 0 7 34 5 77 -4 63 -2 75 10
70 8 -3 15 1 15 8 0 7 -6 11 -12 8 -9 -3 -12 11 -9 49 5 84 14 191 18 218 3
14 7 45 10 70 4 25 9 65 12 90 4 25 7 51 7 58 0 6 4 12 9 12 5 0 7 4 4 8 -4 7
22 147 38 202 3 8 5 23 5 33 1 10 4 16 9 14 4 -3 8 9 9 27 2 17 4 38 6 46 12
47 20 70 26 70 3 0 7 14 8 32 1 17 6 34 11 37 5 3 8 14 6 24 -1 10 4 21 12 24
8 3 12 9 9 13 -7 12 101 279 118 291 5 3 9 10 9 15 0 22 31 83 39 78 5 -3 6 2
3 10 -4 10 -1 16 7 16 7 0 9 3 6 6 -9 10 12 46 23 39 6 -3 7 1 4 9 -3 9 -1 16
5 16 6 0 8 7 5 15 -4 9 0 15 10 15 10 0 13 6 10 15 -4 8 -1 15 7 15 7 0 10 3
6 6 -3 4 12 33 33 65 22 32 40 63 40 68 0 6 5 11 10 11 6 0 10 6 10 13 0 6 14
28 30 47 16 19 30 40 30 47 0 7 6 16 13 20 7 4 21 22 31 38 11 17 30 40 43 53
13 12 21 22 17 22 -3 0 -1 7 6 15 7 8 17 12 23 8 6 -3 7 -1 3 6 -7 11 3 25 66
92 14 16 24 29 20 29 -3 0 3 8 14 19 10 10 46 48 78 84 33 36 63 64 68 61 5
-3 7 -1 6 4 -4 12 82 98 94 94 5 -1 7 1 4 6 -6 11 114 118 127 114 5 -1 6 2 2
7 -7 12 29 33 40 23 5 -4 5 -2 2 4 -4 6 5 22 18 34 14 13 25 21 25 18 0 -3 15
9 34 27 19 17 63 53 98 78 34 26 68 51 73 55 51 40 107 72 118 66 6 -4 9 -4 5
1 -10 11 39 48 53 39 7 -4 9 -3 6 3 -4 5 6 16 21 24 15 8 33 20 41 27 7 7 21
10 29 7 9 -3 13 -3 9 1 -10 10 52 46 65 38 6 -4 8 -3 5 3 -4 6 13 19 36 29 23
10 45 23 48 28 4 4 11 6 17 2 5 -3 13 1 16 10 4 9 13 14 22 10 8 -3 13 -2 10
3 -7 11 22 23 36 15 5 -3 17 4 25 16 10 14 22 20 34 17 11 -3 17 -2 14 2 -5 8
65 35 76 29 4 -2 15 4 25 13 18 16 71 34 87 31 4 -1 7 3 7 9 0 7 10 9 25 7 13
-3 22 -2 20 3 -7 11 32 22 47 13 7 -4 9 -3 5 1 -7 8 41 27 98 40 11 3 43 11
70 19 115 32 123 34 136 22 9 -8 10 -8 5 1 -6 11 17 18 122 38 12 2 27 7 32
10 6 3 10 0 10 -7 0 -9 2 -10 8 -2 4 7 32 15 62 18 30 4 66 8 80 11 31 5 108
13 220 21 47 3 87 8 89 10 2 2 9 -1 16 -6 7 -5 15 -7 19 -3z"/>
<path d="M4749 8563 c-13 -16 -12 -17 4 -4 16 13 21 21 13 21 -2 0 -10 -8 -17
-17z"/>
<path d="M3790 8380 c0 -5 5 -10 11 -10 5 0 7 5 4 10 -3 6 -8 10 -11 10 -2 0
-4 -4 -4 -10z"/>
<path d="M4824 8181 c5 -7 -12 -11 -53 -12 -34 -1 -65 -3 -71 -4 -5 -1 -18 -3
-27 -4 -13 -1 -18 -9 -17 -31 0 -17 4 -33 7 -37 4 -3 1 -13 -6 -21 -10 -13 -9
-14 2 -7 11 6 13 2 9 -19 -3 -14 -3 -28 1 -30 3 -2 6 -27 6 -55 0 -28 2 -51 5
-51 5 0 9 -30 14 -100 1 -17 6 -25 19 -24 9 1 17 -1 17 -5 0 -3 35 -7 77 -9
47 -2 80 -8 85 -15 6 -9 8 -9 8 1 0 7 5 10 11 6 7 -4 26 -8 43 -10 17 -2 42
-7 56 -10 36 -10 41 -11 83 -12 21 -1 36 -6 33 -10 -2 -4 3 -8 12 -9 42 -2 72
-8 72 -13 0 -3 16 -7 35 -8 34 -3 35 -1 36 33 1 19 3 40 4 45 1 6 3 26 4 46 1
25 5 33 14 28 9 -6 9 -5 0 8 -7 8 -11 17 -8 20 6 6 12 59 14 116 1 32 4 41 14
36 9 -6 9 -5 0 8 -7 8 -10 17 -7 20 7 8 11 108 4 109 -15 3 -71 7 -117 10 -30
1 -53 7 -53 13 0 6 -4 5 -9 -3 -6 -9 -11 -10 -15 -2 -5 7 -13 8 -24 2 -9 -5
-26 -5 -37 -1 -11 4 -32 4 -47 -1 -14 -4 -29 -4 -33 -1 -6 6 -66 5 -105 -3
-12 -2 -32 0 -42 6 -15 8 -19 8 -14 0z"/>
<path d="M6680 8135 c-7 -9 -11 -17 -9 -20 3 -2 10 5 17 15 14 24 10 26 -8 5z"/>
<path d="M4015 8040 c3 -5 8 -10 11 -10 2 0 4 5 4 10 0 6 -5 10 -11 10 -5 0
-7 -4 -4 -10z"/>
<path d="M4035 8028 c-27 -11 -59 -21 -70 -22 -12 -1 -27 -6 -34 -10 -8 -5
-17 -3 -23 5 -8 11 -9 11 -5 -3 5 -14 -17 -27 -48 -29 -2 0 -36 -15 -75 -34
-38 -19 -72 -35 -75 -35 -10 0 -200 -95 -206 -104 -4 -4 6 -31 21 -60 15 -28
38 -71 51 -96 13 -25 27 -47 30 -50 8 -7 22 -44 21 -52 -1 -5 3 -8 9 -8 6 0 8
-7 5 -16 -3 -8 -2 -13 3 -10 11 7 23 -22 14 -36 -3 -6 -2 -8 4 -5 6 4 21 -15
34 -41 13 -26 27 -48 32 -50 4 -2 7 -9 7 -16 0 -7 14 -34 31 -60 16 -27 28
-50 25 -53 -2 -3 4 -13 15 -24 11 -11 17 -24 14 -29 -4 -6 -1 -10 4 -10 6 0
11 -6 11 -14 0 -7 7 -19 15 -26 8 -7 13 -16 10 -20 -3 -5 -1 -10 4 -12 5 -1
11 -10 13 -18 2 -8 11 -23 21 -34 9 -11 17 -26 17 -33 0 -7 6 -13 13 -13 12 0
37 64 37 95 0 10 5 13 12 9 7 -4 8 -3 4 4 -4 7 -4 18 1 25 4 6 8 18 10 26 1 8
5 17 10 20 4 3 8 12 9 19 3 38 5 43 13 38 5 -3 9 0 8 7 -1 34 4 48 15 41 6 -4
8 -3 4 4 -3 6 4 35 17 64 13 29 27 62 31 73 6 16 9 17 17 5 8 -11 9 -10 4 8
-4 14 -2 22 6 22 7 0 10 3 6 6 -8 8 33 84 46 84 6 0 7 3 4 6 -3 4 -2 15 4 26
10 19 11 19 32 1 l22 -18 -18 22 c-17 19 -17 24 -4 43 13 18 12 27 -5 78 -10
31 -20 64 -21 72 -1 8 -7 21 -11 29 -7 10 -5 12 3 6 9 -5 8 1 -2 16 -20 33
-49 138 -43 156 3 8 1 11 -4 8 -9 -5 -15 15 -11 38 2 12 -31 6 -84 -15z"/>
<path d="M5860 8039 c0 -5 -4 -7 -10 -4 -6 3 -7 -1 -4 -9 3 -9 3 -24 -1 -33
-9 -21 -7 -13 -36 -118 -12 -44 -26 -82 -31 -83 -4 -2 -6 -8 -2 -13 9 -15 -6
-50 -18 -43 -7 4 -8 2 -4 -4 9 -15 -4 -83 -14 -77 -5 3 -6 -5 -2 -17 4 -16 2
-19 -8 -13 -9 5 -11 4 -6 -4 8 -13 -14 -102 -23 -96 -4 1 -7 -13 -8 -32 -1
-20 -6 -40 -12 -46 -5 -5 -7 -16 -4 -23 3 -8 1 -14 -5 -14 -5 0 -9 -6 -8 -12
2 -29 -26 -118 -37 -111 -6 3 -7 1 -3 -5 6 -10 -12 -93 -31 -142 -3 -8 -7 -22
-8 -30 -2 -8 -14 -53 -27 -100 -20 -69 -24 -107 -24 -203 1 -100 -1 -116 -14
-112 -13 4 -13 4 0 -7 11 -10 16 -37 17 -103 1 -49 5 -103 8 -118 4 -20 2 -26
-6 -22 -6 4 -3 -4 6 -19 15 -22 15 -29 4 -43 -8 -10 -9 -14 -2 -10 8 5 14 -7
18 -40 8 -65 35 -135 49 -130 6 2 11 8 12 13 2 26 18 45 33 39 12 -5 13 -3 4
6 -14 14 -5 41 11 32 6 -3 8 -3 4 2 -9 9 19 65 41 83 9 8 10 10 2 6 -10 -5 -8
2 5 25 10 17 23 31 28 31 5 0 7 3 3 6 -10 10 34 85 46 77 5 -3 7 -1 3 5 -8 13
14 63 25 57 4 -3 11 0 15 6 4 8 3 9 -4 5 -18 -11 -14 3 9 35 11 16 17 29 12
29 -4 0 1 7 11 15 11 8 17 15 12 15 -6 0 41 88 54 100 3 3 6 10 7 16 1 7 15
34 32 61 16 28 32 60 36 72 3 12 11 19 16 16 5 -3 6 1 3 9 -3 9 -1 16 5 16 6
0 10 3 9 8 -3 15 15 42 25 35 6 -3 7 -1 3 5 -4 7 9 39 28 72 20 34 36 64 36
67 0 3 8 12 18 20 9 8 11 11 3 7 -8 -4 -2 13 13 37 14 24 41 72 58 106 18 34
36 59 41 56 6 -3 7 -1 4 5 -9 14 3 43 15 36 5 -3 8 0 7 7 -3 18 32 89 42 84 3
-3 6 3 5 12 0 10 4 18 11 18 6 0 15 4 20 9 5 5 3 6 -4 2 -8 -4 -13 -1 -13 8 0
8 3 16 8 18 4 2 20 29 35 61 16 31 33 57 39 57 6 0 8 6 5 14 -3 8 -3 16 1 18
4 2 16 19 26 38 11 19 16 32 11 28 -9 -8 -105 40 -105 53 0 4 -7 6 -15 3 -8
-4 -17 1 -21 10 -3 9 -9 14 -14 11 -4 -2 -40 12 -81 31 -41 20 -74 34 -74 33
0 -2 -35 10 -77 25 -43 16 -75 32 -73 36 3 5 -4 6 -15 3 -12 -3 -20 0 -20 6 0
7 -4 10 -9 7 -5 -3 -28 1 -51 9 -50 18 -70 19 -70 4z"/>
<path d="M3030 7980 c0 -5 5 -10 11 -10 5 0 7 5 4 10 -3 6 -8 10 -11 10 -2 0
-4 -4 -4 -10z"/>
<path d="M7355 7640 c-3 -5 -1 -10 4 -10 6 0 11 5 11 10 0 6 -2 10 -4 10 -3 0
-8 -4 -11 -10z"/>
<path d="M3016 7479 c5 -9 -51 -50 -60 -44 -3 3 -4 2 -1 -2 7 -9 -16 -34 -26
-27 -5 3 -8 1 -7 -4 2 -5 -13 -22 -32 -38 -19 -16 -50 -46 -69 -66 -18 -21
-38 -35 -44 -31 -5 3 -7 2 -4 -4 4 -6 -13 -28 -36 -50 -23 -22 -60 -62 -82
-88 -22 -27 -50 -59 -62 -71 -27 -27 -29 -49 -7 -58 8 -3 12 -11 9 -16 -4 -6
-3 -10 2 -9 20 3 34 -2 28 -11 -3 -5 0 -10 7 -10 7 0 28 -14 47 -30 18 -17 36
-30 40 -30 3 0 22 -15 41 -33 19 -17 69 -59 110 -91 41 -33 77 -62 80 -66 3
-3 22 -18 43 -33 33 -25 36 -31 25 -45 -12 -15 -11 -16 4 -4 15 12 20 12 32
-1 8 -8 12 -18 8 -21 -3 -4 2 -4 13 0 15 6 17 4 12 -10 -4 -10 -3 -15 3 -11
15 9 152 -106 145 -123 -4 -11 -2 -12 8 -4 10 9 22 4 50 -23 20 -19 41 -35 46
-35 5 0 11 -3 13 -8 2 -4 22 -22 46 -40 23 -19 39 -39 36 -44 -4 -6 -2 -8 4
-4 6 3 17 -1 25 -9 9 -8 18 -15 20 -15 6 0 49 -35 89 -72 16 -16 33 -28 36
-28 4 0 21 -13 38 -28 61 -53 79 -68 112 -90 18 -13 29 -28 26 -34 -4 -6 -2
-8 4 -4 9 5 65 -33 82 -56 8 -10 50 -6 50 5 0 5 7 7 15 3 8 -3 15 -1 15 3 0
12 60 32 73 24 6 -3 7 -1 3 5 -4 7 10 16 39 25 l46 13 -21 27 c-12 15 -22 35
-23 46 0 11 -5 19 -10 18 -4 -1 -28 35 -53 81 -24 45 -41 82 -38 82 3 0 -2 7
-11 16 -9 9 -14 22 -11 30 3 7 2 14 -2 16 -10 4 -46 81 -44 91 2 5 -2 6 -7 3
-13 -8 -34 21 -25 35 4 7 3 9 -4 5 -5 -3 -25 13 -43 36 -19 24 -36 45 -39 48
-3 3 -36 43 -74 90 -37 47 -78 98 -92 114 -13 15 -24 34 -24 42 0 8 -4 13 -9
11 -14 -3 -62 64 -54 76 3 6 2 7 -4 4 -10 -6 -73 64 -73 81 0 6 -7 13 -16 16
-8 3 -12 11 -8 17 4 7 3 9 -4 5 -6 -3 -21 8 -33 26 -13 18 -36 49 -53 68 -17
20 -41 49 -53 65 -28 37 -61 79 -90 114 -13 14 -23 32 -23 39 0 7 -4 11 -9 7
-6 -3 -15 5 -22 17 -7 13 -19 28 -28 35 -9 7 -12 13 -7 13 4 0 -6 12 -23 27
-17 15 -31 33 -31 40 0 6 -9 11 -19 10 -11 0 -18 -4 -15 -8z"/>
<path d="M6907 7442 c-20 -26 -52 -65 -71 -87 -20 -22 -36 -44 -36 -49 0 -4
-7 -6 -14 -3 -10 4 -13 1 -10 -8 3 -7 -10 -29 -29 -49 -20 -20 -33 -36 -30
-36 4 0 -2 -9 -12 -20 -10 -11 -22 -17 -28 -13 -5 3 -7 2 -4 -4 8 -12 -41 -79
-54 -75 -6 1 -8 -2 -5 -7 8 -12 -74 -107 -88 -103 -6 2 -8 0 -4 -4 7 -7 -11
-36 -54 -86 -13 -14 -34 -41 -48 -58 -14 -18 -47 -60 -75 -94 -27 -33 -53 -65
-58 -71 -47 -63 -122 -153 -135 -162 -9 -7 -12 -13 -7 -13 4 0 0 -9 -10 -20
-10 -11 -22 -17 -28 -13 -6 3 -7 1 -3 -5 4 -7 -3 -23 -16 -37 -43 -48 -53 -60
-76 -93 -13 -18 -28 -29 -34 -26 -7 4 -8 2 -4 -4 8 -13 -33 -64 -45 -56 -5 3
-7 -1 -4 -8 3 -7 -11 -31 -31 -53 -19 -22 -32 -33 -28 -25 4 9 3 12 -2 7 -5
-5 -9 -13 -9 -17 0 -12 -23 -45 -57 -84 -16 -17 -28 -35 -28 -41 0 -6 21 -17
46 -24 28 -8 43 -18 40 -26 -3 -8 4 -10 20 -7 18 3 26 -1 33 -19 5 -13 10 -18
10 -12 1 8 20 1 51 -18 40 -25 53 -29 65 -19 8 6 20 8 26 4 7 -4 9 -3 6 3 -4
5 5 20 18 31 14 12 25 20 25 18 0 -2 14 9 31 25 17 16 35 26 40 23 5 -3 8 -1
7 5 -4 14 121 113 134 105 6 -4 8 -3 5 3 -7 11 53 63 73 63 6 0 9 4 5 9 -7 13
65 62 78 54 6 -3 7 -1 3 5 -4 6 14 26 41 46 27 19 57 43 68 53 23 21 65 55
120 98 21 17 44 36 52 43 7 7 18 10 24 6 7 -4 9 -3 6 3 -4 6 21 32 56 59 34
27 68 53 75 59 7 5 23 20 36 32 18 17 26 19 36 10 10 -9 11 -9 5 2 -5 9 -2 18
7 25 23 17 89 71 190 154 52 44 92 70 99 66 7 -4 9 -3 6 4 -7 9 79 85 106 95
9 3 9 8 -2 20 -7 10 -10 17 -6 17 4 0 -4 9 -19 21 -14 11 -24 25 -20 30 3 5 0
8 -8 7 -7 -2 -12 5 -12 14 1 10 -2 16 -6 15 -10 -3 -110 99 -110 113 0 6 -5 8
-12 4 -7 -5 -9 -2 -5 9 4 11 2 14 -9 10 -9 -3 -14 1 -14 13 0 9 -3 15 -6 12
-7 -8 -80 63 -76 74 1 4 -4 8 -11 8 -7 0 -33 18 -57 41 -25 22 -57 49 -71 59
l-26 19 -36 -47z"/>
<path d="M4516 7438 c5 -8 0 -9 -14 -6 -12 4 -22 2 -22 -4 0 -6 -11 -8 -25 -6
-13 3 -22 1 -19 -3 3 -5 2 -9 -3 -9 -4 0 -24 -24 -43 -53 -19 -28 -39 -55 -45
-59 -5 -4 -6 -8 -2 -8 4 0 -6 -26 -23 -57 -16 -32 -30 -66 -30 -75 0 -9 -4
-19 -9 -22 -5 -3 -12 -22 -15 -41 -4 -19 -11 -35 -15 -35 -5 0 -8 -6 -8 -12 2
-22 -14 -98 -21 -98 -4 0 -8 -18 -10 -40 -1 -22 -8 -52 -14 -67 -6 -16 -10
-32 -9 -37 1 -5 -1 -16 -4 -25 -4 -9 -9 -41 -11 -71 -5 -68 -9 -88 -16 -95 -3
-3 -2 -24 2 -47 4 -22 7 -53 6 -69 -1 -15 2 -25 7 -22 6 4 8 -5 5 -20 -3 -15
-1 -24 3 -21 5 3 9 -4 9 -16 0 -12 7 -34 15 -50 9 -17 12 -30 8 -30 -4 0 -2
-5 5 -12 7 -7 12 -22 12 -34 0 -12 3 -24 8 -26 4 -1 20 -28 36 -58 16 -30 37
-64 47 -76 11 -11 19 -24 19 -28 0 -15 85 -97 107 -102 13 -4 23 -9 23 -13 0
-3 19 -6 43 -7 23 -1 71 -4 107 -7 36 -3 107 -7 157 -8 58 -1 90 -5 87 -11 -4
-6 3 -5 14 1 25 13 35 14 28 3 -3 -5 1 -9 9 -9 8 0 12 4 9 9 -8 13 10 10 25
-4 11 -10 13 -10 7 0 -5 7 -1 12 9 12 9 0 14 -4 11 -8 -3 -5 1 -9 9 -9 8 0 12
4 9 8 -2 4 32 9 76 11 49 2 80 -1 80 -7 0 -6 4 -5 8 1 4 7 28 11 54 10 25 0
44 2 41 7 -4 7 2 8 49 11 20 1 21 6 21 71 -1 78 -3 87 -39 162 -14 29 -22 58
-18 64 4 8 3 9 -4 5 -17 -10 -16 56 1 74 10 12 9 12 -5 1 -16 -12 -18 -11 -17
10 0 13 -2 41 -5 62 -6 36 -11 270 -6 292 1 6 1 36 0 68 -1 41 2 57 12 57 9 0
10 3 2 8 -11 7 -12 118 -1 129 4 3 2 13 -2 22 -5 9 -5 37 -1 63 4 27 4 50 2
53 -5 5 -10 43 -15 112 -1 11 -5 19 -9 16 -8 -4 -12 12 -9 30 1 5 -3 6 -9 2
-5 -3 -10 -2 -10 3 0 9 -64 43 -89 48 -8 1 -18 9 -22 16 -5 7 -9 10 -9 6 0 -4
-18 -1 -40 7 -42 15 -43 15 -61 15 -5 0 -8 4 -5 8 2 4 -8 7 -22 6 -15 0 -49 5
-77 12 -27 7 -66 14 -85 15 -19 2 -39 5 -45 8 -16 8 -169 7 -187 -2 -11 -5
-18 -4 -18 3 0 5 -5 10 -11 10 -5 0 -7 -5 -3 -12z"/>
<path d="M4930 7441 c0 -6 4 -13 10 -16 6 -3 7 1 4 9 -7 18 -14 21 -14 7z"/>
<path d="M6570 7060 c0 -5 5 -10 11 -10 5 0 7 5 4 10 -3 6 -8 10 -11 10 -2 0
-4 -4 -4 -10z"/>
<path d="M6345 6799 c-3 -4 2 -6 10 -5 21 3 28 13 10 13 -9 0 -18 -4 -20 -8z"/>
<path d="M3790 6601 c0 -6 4 -13 10 -16 6 -3 7 1 4 9 -7 18 -14 21 -14 7z"/>
<path d="M6896 6562 c-3 -5 1 -9 9 -9 8 0 12 4 9 9 -3 4 -7 8 -9 8 -2 0 -6 -4
-9 -8z"/>
<path d="M7695 6548 c-16 -10 -39 -15 -50 -12 -16 4 -17 3 -6 -5 12 -8 9 -12
-15 -22 -16 -7 -37 -19 -46 -27 -10 -8 -24 -12 -33 -8 -9 3 -13 2 -10 -4 5 -8
-71 -54 -85 -52 -3 0 -12 -5 -20 -13 -27 -23 -80 -46 -92 -39 -7 5 -8 3 -4 -5
5 -8 0 -14 -13 -18 -12 -3 -21 -10 -21 -16 0 -6 -3 -8 -6 -4 -3 3 -29 -8 -57
-25 -29 -17 -60 -31 -70 -30 -9 0 -15 -3 -12 -8 3 -5 -23 -23 -59 -40 -36 -17
-68 -36 -71 -41 -4 -5 -11 -7 -16 -4 -5 4 -9 2 -9 -3 0 -11 -60 -38 -73 -34
-5 1 -6 -2 -3 -7 7 -11 -49 -32 -60 -23 -4 4 -4 2 -1 -4 6 -10 -20 -29 -32
-24 -2 1 -7 -2 -10 -7 -8 -12 -161 -95 -161 -88 0 3 -10 -3 -22 -15 -20 -18
-27 -21 -44 -19 -4 0 -10 -3 -13 -8 -17 -22 -141 -84 -153 -76 -7 3 -8 1 -4
-5 4 -7 -28 -29 -82 -56 -49 -26 -97 -52 -108 -60 -18 -14 -18 -15 9 -41 14
-15 24 -32 20 -38 -3 -6 -1 -7 5 -3 12 7 89 -71 84 -86 -1 -4 5 -8 13 -8 9 0
19 -8 22 -17 13 -32 56 -73 67 -64 6 5 14 9 19 9 4 1 33 8 64 17 46 13 58 14
65 3 8 -10 9 -10 5 2 -5 19 103 52 115 35 5 -6 8 -2 8 9 0 11 5 16 14 13 7 -3
19 0 26 6 10 9 11 9 5 -3 -7 -13 -6 -13 11 1 10 8 26 15 34 14 8 0 17 3 20 7
3 3 17 8 30 10 14 2 31 7 38 12 7 4 19 2 28 -5 12 -10 13 -9 9 3 -5 11 3 17
27 22 18 3 36 5 39 3 3 -1 13 4 21 10 8 7 31 14 51 15 19 2 33 5 31 8 -11 10
71 27 84 17 9 -8 12 -7 10 3 -2 7 9 16 25 21 19 5 25 4 21 -4 -3 -7 1 -4 9 6
8 10 19 17 23 16 5 -2 47 10 93 25 47 15 91 24 100 21 8 -3 12 -3 8 1 -9 9
103 45 115 38 4 -3 8 0 8 6 0 7 6 10 14 7 7 -3 17 -2 22 3 14 13 124 41 134
35 6 -3 10 -2 10 3 0 8 75 33 110 37 3 0 10 3 15 6 6 4 22 9 37 13 24 6 26 9
18 37 -5 18 -7 35 -5 40 3 4 0 9 -6 11 -7 2 -12 18 -13 36 0 18 -5 32 -9 32
-5 0 -5 5 -2 10 3 6 1 10 -4 10 -6 0 -10 3 -9 8 1 4 -6 25 -16 47 -10 22 -19
50 -19 62 -1 11 -5 19 -8 17 -4 -2 -13 16 -20 41 -7 25 -17 45 -22 45 -5 0 -6
7 -3 16 3 8 2 12 -4 9 -6 -3 -10 0 -10 7 0 8 -13 39 -30 71 -16 31 -26 57 -22
57 4 0 2 4 -5 8 -7 4 -18 21 -25 38 l-13 31 -30 -19z"/>
<path d="M2250 6539 c0 -6 -4 -8 -8 -5 -4 2 -9 -5 -9 -17 -1 -11 -9 -25 -18
-29 -8 -5 -12 -14 -9 -20 4 -6 0 -16 -8 -22 -8 -6 -15 -13 -14 -16 2 -14 -37
-99 -44 -95 -4 3 -6 -3 -3 -13 2 -11 -1 -25 -9 -33 -7 -8 -14 -21 -16 -29 -6
-33 -46 -119 -52 -115 -4 2 -5 -7 -2 -22 3 -17 1 -24 -6 -19 -6 4 -8 -2 -5
-14 3 -11 0 -20 -6 -20 -6 0 -10 -3 -10 -7 4 -22 -2 -44 -10 -39 -4 3 -6 -6
-3 -19 2 -14 0 -25 -6 -25 -6 0 -8 -10 -4 -22 4 -16 2 -19 -9 -13 -8 4 -5 -1
6 -11 11 -11 30 -21 43 -22 13 -1 49 -10 80 -20 31 -11 87 -27 124 -37 37 -10
65 -22 62 -26 -3 -5 1 -6 9 -3 14 5 119 -21 142 -35 6 -3 12 -6 15 -6 50 -8
90 -18 90 -24 0 -4 12 -8 26 -9 34 -3 46 -11 37 -25 -5 -9 -3 -9 8 0 17 14 62
6 52 -10 -3 -6 -1 -7 5 -3 13 8 143 -25 137 -35 -3 -3 7 -5 20 -3 14 1 27 -2
31 -7 3 -5 10 -7 15 -4 5 4 9 2 9 -2 0 -5 10 -10 23 -10 39 -3 68 -13 63 -22
-3 -4 5 -6 18 -4 13 3 34 -1 47 -8 13 -7 28 -12 33 -11 5 2 16 0 25 -4 9 -4
27 -9 41 -11 13 -2 27 -7 30 -11 3 -4 16 -9 30 -10 14 -2 29 -7 34 -12 5 -5
15 -6 24 -3 8 4 13 2 9 -3 -3 -5 2 -10 11 -10 32 -2 81 -14 162 -42 8 -3 21
-6 29 -8 44 -9 101 -30 101 -37 0 -4 4 -6 9 -3 4 3 22 1 40 -4 26 -7 31 -6 32
8 9 136 19 206 32 214 9 6 9 8 -1 8 -7 0 -10 5 -6 12 11 17 13 68 3 74 -5 3
-7 10 -4 15 3 5 -1 6 -9 3 -8 -3 -24 0 -36 6 -18 10 -19 14 -9 28 11 14 11 15
-1 5 -18 -16 -34 -17 -24 -1 4 7 3 8 -4 4 -12 -7 -48 8 -70 31 -7 7 -20 13
-29 13 -8 0 -27 8 -41 18 -15 10 -48 29 -74 42 -26 13 -44 28 -41 34 3 5 1 6
-6 2 -6 -4 -24 0 -38 10 -26 16 -140 78 -216 116 -22 11 -35 23 -31 30 4 7 3
8 -4 4 -13 -8 -177 75 -193 97 -3 5 -9 8 -13 8 -19 -3 -27 0 -22 7 2 4 -5 9
-17 9 -12 1 -23 7 -25 13 -2 5 -10 10 -18 10 -9 0 -12 5 -8 12 4 6 3 8 -4 4
-6 -3 -26 2 -44 13 -18 11 -58 32 -88 47 -30 16 -58 33 -62 39 -4 5 -8 6 -8 1
0 -5 -8 -2 -17 6 -19 16 -83 52 -95 53 -4 0 -13 6 -19 13 -7 6 -19 12 -26 12
-7 0 -13 5 -13 10 0 6 -6 9 -12 8 -7 -2 -12 3 -10 10 1 8 -2 11 -7 8 -11 -7
-82 24 -76 34 2 3 -5 7 -16 7 -10 1 -19 -3 -19 -8z"/>
<path d="M3190 6459 c0 -5 5 -7 10 -4 6 3 10 8 10 11 0 2 -4 4 -10 4 -5 0 -10
-5 -10 -11z"/>
<path d="M6455 6220 c3 -5 8 -10 11 -10 2 0 4 5 4 10 0 6 -5 10 -11 10 -5 0
-7 -4 -4 -10z"/>
<path d="M2990 6166 c0 -2 7 -7 16 -10 8 -3 12 -2 9 4 -6 10 -25 14 -25 6z"/>
<path d="M4934 5916 c1 -8 5 -18 8 -22 4 -3 5 1 4 10 -1 8 -5 18 -8 22 -4 3
-5 -1 -4 -10z"/>
<path d="M4835 5899 c-3 -4 2 -6 10 -5 21 3 28 13 10 13 -9 0 -18 -4 -20 -8z"/>
<path d="M4609 5874 c-8 -10 -24 -14 -45 -12 -18 2 -30 0 -28 -4 3 -4 -10 -9
-28 -10 -41 -1 -43 -2 -96 -17 -23 -6 -48 -9 -54 -5 -7 4 -8 3 -4 -4 5 -8 -1
-12 -18 -12 -14 0 -28 -5 -31 -10 -5 -8 -12 -7 -23 2 -10 7 -13 8 -9 3 9 -11
-122 -77 -136 -68 -6 3 -7 1 -3 -5 4 -7 2 -12 -3 -12 -18 0 -26 5 -23 13 1 5
-2 6 -7 2 -6 -3 -8 -12 -5 -19 6 -14 -60 -61 -73 -53 -5 3 -9 -8 -9 -25 -1
-17 -7 -34 -15 -39 -11 -7 -11 -9 -1 -9 10 0 10 -5 1 -22 -7 -13 -12 -24 -11
-25 1 -2 2 -19 2 -39 0 -25 -3 -33 -12 -28 -10 6 -10 5 -1 -7 10 -12 10 -18 0
-29 -10 -10 -9 -11 3 -5 13 8 13 7 1 -8 -7 -9 -9 -17 -4 -17 13 0 13 -32 0
-47 -6 -9 -6 -13 1 -13 5 0 10 -21 10 -46 1 -54 11 -125 19 -138 4 -5 1 -6 -5
-2 -6 3 -14 1 -18 -5 -4 -7 -3 -9 4 -5 14 8 20 -3 26 -45 2 -19 9 -47 15 -62
6 -15 10 -31 9 -35 -1 -4 4 -20 11 -36 6 -16 9 -38 6 -50 -4 -14 -3 -17 3 -8
7 10 16 -3 32 -45 13 -32 30 -66 38 -75 8 -10 12 -18 9 -18 -4 0 2 -9 13 -20
21 -21 47 -27 125 -31 28 -1 56 -7 64 -13 11 -8 13 -8 8 0 -4 6 2 10 16 8 12
-1 22 -3 22 -4 0 0 50 -3 110 -5 61 -3 155 -7 210 -10 55 -3 163 -8 240 -11
89 -4 143 -10 147 -17 6 -9 8 -9 8 0 0 14 40 13 40 -2 0 -5 5 -3 10 5 6 9 13
11 18 5 4 -5 27 -11 52 -11 115 -3 121 -4 114 -16 -6 -10 -4 -10 7 0 14 13 33
17 26 5 -3 -5 14 -8 36 -9 82 -1 159 -24 163 -47 3 -21 -20 -33 -69 -36 -29
-1 -37 2 -32 11 4 7 1 6 -7 -2 -10 -11 -33 -14 -98 -13 -175 5 -249 9 -256 16
-4 3 -14 2 -24 -3 -10 -5 -19 -7 -22 -5 -17 17 -668 19 -685 2 -3 -4 -13 -1
-21 6 -13 10 -14 9 -7 -2 6 -11 3 -13 -13 -9 -12 4 -20 3 -17 -2 8 -13 -43
-18 -56 -6 -9 8 -10 8 -4 -2 4 -7 1 -21 -7 -30 -19 -23 -49 -103 -42 -113 3
-5 1 -9 -4 -9 -5 0 -9 -6 -9 -12 0 -7 -4 -26 -8 -43 -14 -64 -13 -348 2 -420
11 -56 12 -74 2 -90 -11 -18 -10 -19 4 -7 13 11 16 10 19 -10 2 -16 18 -31 56
-50 28 -15 52 -26 52 -24 0 2 17 0 38 -6 46 -11 69 -15 105 -17 16 0 26 -4 24
-8 -3 -5 20 -9 51 -9 114 -3 123 -4 117 -13 -3 -6 11 -8 36 -5 32 4 39 2 33
-8 -6 -10 -5 -11 8 -1 8 7 17 11 20 8 2 -3 40 -8 84 -11 150 -10 159 -12 156
-25 -2 -9 0 -10 10 -1 14 11 80 14 74 3 -2 -3 28 -6 67 -7 112 -2 161 -7 169
-19 5 -6 8 -5 8 3 0 8 5 10 12 6 7 -4 28 -8 48 -9 76 -3 145 -18 157 -34 12
-14 12 -14 7 2 -5 13 -2 16 10 11 9 -3 16 -11 16 -18 0 -6 5 -4 10 4 8 12 10
12 10 1 0 -8 3 -12 6 -8 11 11 65 -15 62 -31 -4 -23 -49 -27 -188 -17 -25 1
-65 3 -89 4 -33 1 -42 4 -38 16 4 8 2 17 -4 20 -5 4 -9 3 -8 -2 5 -28 -8 -35
-41 -23 -3 1 -16 1 -29 0 -19 -1 -23 2 -17 17 5 15 4 16 -6 3 -7 -8 -22 -14
-33 -14 -11 1 -35 2 -53 3 -24 1 -31 5 -26 14 5 8 2 8 -9 -2 -13 -10 -17 -10
-17 -1 0 10 -3 10 -15 0 -8 -7 -15 -9 -15 -4 0 5 -21 9 -48 10 -114 2 -172 8
-172 17 0 6 -5 6 -12 0 -7 -5 -33 -8 -58 -6 -82 6 -241 5 -247 -1 -3 -3 -13 0
-21 7 -10 7 -13 7 -9 1 6 -10 -32 -21 -90 -26 -7 -1 -13 -6 -13 -11 0 -5 -6
-7 -12 -4 -10 3 -13 -23 -13 -112 0 -66 -4 -119 -10 -123 -6 -5 -6 -8 2 -8 8
0 9 -9 3 -30 -6 -20 -5 -28 2 -24 6 4 9 -3 7 -17 -2 -13 0 -30 4 -36 5 -7 6
-13 3 -13 -2 0 -1 -13 4 -29 6 -21 5 -31 -3 -35 -9 -3 -9 -5 0 -5 7 -1 15 -18
19 -38 3 -21 20 -66 36 -100 27 -55 35 -63 80 -82 28 -12 57 -21 64 -21 8 0
14 -3 14 -7 0 -5 11 -9 25 -9 14 -1 33 -5 43 -9 9 -4 37 -9 61 -11 25 -2 47
-8 50 -12 4 -4 24 -8 46 -8 22 -1 65 -5 95 -9 63 -8 116 -13 177 -16 27 -1 40
-6 36 -13 -5 -8 -2 -7 8 0 8 6 23 10 34 7 11 -2 57 -5 102 -8 45 -2 87 -6 93
-10 5 -3 10 -3 10 2 0 4 20 8 45 8 25 0 45 -3 45 -7 0 -4 6 -5 13 -2 7 2 31 6
53 8 22 1 46 6 53 11 8 4 17 2 22 -6 5 -8 9 -9 9 -3 0 10 72 30 93 25 4 0 7 4
7 10 0 7 9 9 23 5 16 -4 26 1 35 14 7 11 19 20 27 20 17 0 46 17 121 72 29 20
55 34 59 30 4 -4 5 0 3 8 -1 8 3 14 10 12 6 -1 11 4 10 10 -2 7 3 12 10 10 6
-1 12 4 12 11 0 7 14 23 30 37 17 14 30 29 30 35 0 6 10 21 23 35 13 14 25 30
26 35 2 6 8 21 13 35 5 14 9 27 8 29 -1 2 3 7 10 11 6 4 12 13 14 21 1 8 11
39 21 69 23 65 22 63 24 96 0 14 4 23 9 21 4 -3 8 18 9 45 1 28 8 57 15 66 11
13 11 14 -1 7 -10 -6 -12 -4 -6 6 8 13 10 29 14 107 1 24 5 31 14 26 9 -6 9
-4 1 7 -12 16 -12 29 -1 47 5 6 4 12 0 12 -5 0 -8 15 -6 33 6 59 12 171 14
244 1 44 6 70 11 67 6 -4 5 2 -1 13 -6 11 -8 23 -4 26 3 3 7 39 8 79 6 145 8
173 18 186 6 8 6 12 -2 12 -7 0 -9 5 -6 10 6 10 13 107 17 248 1 61 4 72 17
67 14 -4 14 -4 1 7 -19 16 -23 77 -7 97 8 10 9 13 1 8 -15 -9 -23 79 -9 95 7
8 6 9 -2 4 -8 -5 -13 -1 -14 11 -4 61 -27 154 -53 216 -9 21 -14 43 -10 49 4
6 3 8 -4 4 -6 -3 -14 3 -18 16 -3 12 -15 31 -25 42 -11 11 -19 25 -19 32 0 7
-36 50 -80 96 -44 45 -80 86 -80 90 0 5 -6 7 -12 5 -7 -1 -12 4 -10 11 1 8 -1
11 -6 8 -8 -5 -46 22 -92 64 -9 8 -23 16 -31 18 -7 2 -16 7 -19 11 -3 5 -24
18 -47 30 -24 12 -43 26 -43 31 0 6 -3 9 -8 7 -13 -4 -141 56 -136 65 3 4 -3
5 -12 1 -11 -4 -15 -3 -10 5 4 7 -1 10 -14 7 -11 -2 -40 4 -64 15 -24 10 -47
16 -50 13 -3 -4 -6 -2 -6 3 0 5 -14 11 -32 12 -18 2 -35 6 -38 10 -3 4 -27 8
-55 10 -27 1 -52 6 -55 10 -3 4 -39 8 -80 9 -179 4 -210 6 -210 17 0 7 -3 8
-8 1 -8 -12 -161 -13 -179 -2 -7 4 -15 2 -19 -4 -4 -8 -9 -7 -15 2 -5 8 -9 9
-9 4 0 -6 -25 -11 -56 -13 -43 -2 -54 0 -49 10 4 7 1 6 -7 -2 -7 -8 -22 -17
-32 -18 -17 -3 -18 -2 -7 12 8 9 11 16 8 16 -2 0 -10 -7 -18 -16z"/>
<path d="M5716 5758 c3 -5 10 -6 15 -3 13 9 11 12 -6 12 -8 0 -12 -4 -9 -9z"/>
<path d="M2115 5409 c-4 -6 -5 -12 -2 -15 2 -3 7 2 10 11 7 17 1 20 -8 4z"/>
<path d="M1892 5382 c-1 -9 -2 -37 -3 -62 -1 -25 -6 -51 -12 -59 -10 -12 -9
-13 3 -6 12 6 13 5 3 -5 -9 -10 -9 -18 -1 -33 9 -17 8 -19 -7 -13 -14 5 -15 3
-7 -6 6 -8 10 -68 11 -141 0 -70 3 -132 6 -138 4 -5 2 -9 -2 -9 -5 0 -9 -9 -9
-20 0 -11 3 -20 6 -20 11 0 8 -35 -4 -42 -8 -5 -7 -8 2 -8 8 0 12 -16 12 -46
l0 -46 83 6 c45 3 96 8 112 10 17 3 57 7 90 11 33 3 78 8 100 10 22 2 62 6 88
9 26 3 52 8 57 11 6 3 10 1 10 -5 0 -7 6 -8 19 0 28 14 54 13 45 -2 -5 -8 -2
-8 10 1 26 22 133 33 155 16 11 -7 13 -7 7 3 -5 8 2 12 26 13 18 1 44 2 58 4
14 2 56 6 94 10 38 3 72 7 75 9 4 3 42 7 86 11 44 3 94 8 110 10 39 5 156 16
198 19 18 1 38 6 44 9 7 4 15 3 18 -3 4 -7 11 -8 18 -2 7 6 44 13 82 16 39 4
84 9 100 10 124 14 149 17 156 21 4 3 3 19 -1 37 -5 17 -7 35 -3 41 3 6 1 7
-5 3 -8 -5 -13 2 -14 21 -1 27 -3 42 -8 53 -1 3 -4 21 -6 40 -10 83 -15 90
-68 90 -23 0 -48 6 -55 13 -11 10 -12 9 -6 -2 5 -9 4 -12 -2 -8 -6 4 -41 10
-79 13 -64 6 -91 10 -104 14 -3 1 -22 2 -43 2 -20 0 -39 3 -41 7 -2 3 -27 6
-55 5 -28 -1 -51 2 -51 6 0 3 -20 5 -45 4 -25 -2 -44 0 -41 4 2 4 -19 6 -47 6
-29 -1 -56 0 -60 3 -5 3 -36 7 -69 9 -33 2 -72 6 -86 9 -15 3 -62 8 -105 11
-70 5 -112 10 -112 14 0 0 -29 3 -65 5 -36 3 -94 9 -130 13 -36 5 -76 10 -90
11 -37 2 -53 6 -69 15 -10 7 -12 6 -6 -4 5 -8 4 -11 -2 -7 -6 4 -37 9 -69 12
-33 3 -79 7 -104 10 -25 2 -76 7 -115 11 -38 3 -73 8 -76 10 -3 2 -6 -5 -7
-14z"/>
<path d="M8069 5396 c-4 -4 -124 -17 -197 -21 -18 -1 -35 -5 -39 -8 -3 -4 -13
-1 -21 6 -13 9 -14 9 -8 0 4 -7 3 -13 -1 -13 -5 0 -15 6 -22 13 -11 10 -13 10
-7 0 5 -8 1 -13 -11 -14 -10 0 -40 -2 -68 -5 -27 -3 -70 -7 -95 -9 -25 -2 -45
-4 -45 -5 0 -3 -101 -12 -147 -14 -27 0 -48 -5 -48 -10 0 -5 -6 -3 -14 3 -8 7
-16 8 -18 3 -1 -5 -34 -12 -72 -16 -38 -3 -73 -9 -77 -12 -5 -3 -9 0 -9 6 0 8
-6 7 -21 -1 -12 -6 -38 -9 -59 -7 -21 2 -36 -1 -33 -6 3 -5 0 -6 -8 -4 -8 3
-22 1 -31 -4 -12 -6 -18 -5 -18 2 0 6 -4 8 -10 5 -9 -6 -81 -17 -125 -19 -12
-1 -19 5 -17 12 1 8 -2 11 -8 7 -6 -3 -8 -10 -5 -15 2 -4 -6 -10 -20 -12 -15
-3 -22 -1 -18 5 4 6 1 7 -8 1 -16 -10 -12 -9 -99 -19 -36 -4 -74 -8 -85 -10
-11 -1 -25 -3 -31 -4 -7 0 -15 -8 -18 -17 -3 -8 -2 -12 4 -9 6 3 11 -4 12 -17
2 -42 3 -47 11 -54 11 -12 8 -36 -4 -28 -6 3 -4 -5 6 -19 9 -14 15 -34 14 -44
-1 -10 1 -25 4 -33 3 -8 8 -41 12 -72 4 -33 11 -58 18 -59 7 -1 26 -3 42 -5
17 -2 49 -5 73 -5 23 -1 42 -5 42 -9 0 -4 11 -5 25 -2 13 2 32 1 42 -2 9 -4
53 -9 98 -11 44 -2 96 -6 115 -9 19 -3 58 -8 85 -12 28 -3 61 -7 75 -9 14 -2
42 -3 64 -4 35 -1 37 -3 25 -18 -13 -17 -12 -17 5 -3 20 15 46 22 46 12 0 -4
25 -7 56 -7 33 0 60 -5 66 -13 7 -7 15 -9 22 -3 6 4 20 7 31 5 41 -8 100 -15
132 -16 18 -1 30 -4 28 -8 -2 -4 2 -7 10 -7 8 0 15 4 15 8 0 4 16 3 34 -1 19
-4 37 -5 40 -2 4 3 6 1 6 -4 0 -5 24 -10 53 -10 28 -1 91 -5 140 -9 l87 -7 1
34 c0 18 2 42 5 53 2 11 6 72 8 137 2 64 7 121 10 127 4 6 4 11 -1 11 -4 0 -9
35 -10 78 -5 171 -16 245 -34 228z"/>
<path d="M6755 5289 c-4 -6 -5 -12 -2 -15 2 -3 7 2 10 11 7 17 1 20 -8 4z"/>
<path d="M7106 4798 c3 -5 10 -6 15 -3 13 9 11 12 -6 12 -8 0 -12 -4 -9 -9z"/>
<path d="M2570 4785 c0 -7 30 -13 34 -7 3 4 -4 9 -15 9 -10 1 -19 0 -19 -2z"/>
<path d="M3761 4699 c-35 -10 -68 -16 -73 -13 -4 3 -8 1 -8 -4 0 -6 -17 -13
-37 -17 -21 -4 -43 -11 -49 -16 -6 -5 -29 -10 -52 -12 -22 -1 -38 -5 -36 -8 5
-8 -77 -29 -88 -23 -4 3 -8 0 -8 -7 0 -7 -10 -9 -25 -7 -13 3 -22 2 -20 -2 3
-5 -2 -11 -11 -14 -9 -4 -13 -2 -8 5 3 6 -5 3 -20 -6 -14 -10 -35 -15 -47 -12
-12 3 -18 3 -15 -1 8 -8 -129 -52 -170 -55 -18 -1 -30 -5 -27 -9 2 -5 -4 -9
-14 -10 -28 -2 -36 -4 -67 -17 -16 -6 -36 -9 -43 -7 -8 3 -11 1 -8 -4 3 -6 -3
-11 -14 -11 -33 -2 -39 -4 -47 -11 -12 -13 -36 -9 -28 4 4 7 3 8 -5 4 -6 -4
-9 -11 -6 -16 5 -7 -70 -26 -87 -22 -5 1 -8 -3 -8 -9 0 -6 -9 -9 -20 -6 -11 3
-20 2 -20 -3 0 -4 -7 -11 -16 -14 -9 -4 -13 -2 -8 5 3 6 -4 5 -17 -3 -13 -8
-31 -14 -39 -13 -8 0 -18 -3 -21 -8 -3 -4 -19 -9 -35 -10 -16 -1 -32 -5 -35
-10 -3 -4 -19 -9 -36 -10 -17 -1 -29 -5 -26 -9 2 -5 -5 -9 -16 -9 -12 -1 -27
-2 -33 -3 -7 -1 -16 -5 -19 -9 -3 -5 -22 -9 -41 -10 -20 -1 -34 -5 -31 -9 7
-13 -32 -9 -47 5 -12 10 -12 9 -2 -4 10 -14 9 -17 -7 -22 -11 -2 -25 0 -31 7
-9 8 -11 7 -8 -4 2 -8 -4 -15 -12 -16 -8 0 -28 -6 -44 -13 -16 -6 -36 -9 -43
-7 -8 3 -12 2 -9 -2 2 -4 -24 -16 -59 -26 -58 -16 -63 -20 -54 -37 5 -11 8
-19 5 -19 -3 0 1 -12 9 -26 7 -15 12 -35 10 -45 -2 -11 0 -17 4 -14 14 8 21
-38 9 -52 -8 -11 -7 -12 6 -7 10 4 16 1 16 -8 0 -8 7 -29 16 -47 9 -17 13 -39
10 -47 -4 -10 -2 -13 6 -8 8 5 9 2 5 -10 -4 -9 -3 -15 2 -11 5 3 19 -19 30
-50 11 -30 43 -99 72 -154 51 -100 58 -107 94 -81 28 21 116 69 110 61 -3 -6
17 5 46 24 28 19 55 33 59 30 4 -3 11 2 14 11 3 9 13 14 20 11 8 -3 17 1 20 9
3 9 10 13 14 10 5 -3 16 4 26 15 11 13 25 19 37 16 10 -3 17 -1 14 3 -8 12 33
33 47 24 6 -4 8 -3 5 3 -8 13 41 36 55 27 6 -4 8 -2 4 4 -10 17 13 25 32 10
15 -11 15 -11 5 3 -11 13 -6 19 35 39 26 13 64 34 85 47 21 13 43 21 50 17 7
-4 9 -3 4 1 -9 10 81 58 93 50 5 -3 12 0 16 6 4 8 3 9 -4 5 -7 -4 -12 -5 -12
-2 0 7 82 51 95 51 6 0 18 8 28 18 18 18 43 14 31 -5 -4 -7 -2 -8 4 -4 6 4 9
13 6 20 -3 8 15 23 51 41 31 16 59 33 62 37 2 5 11 4 19 -3 12 -10 13 -9 9 4
-6 14 15 28 39 26 5 0 12 4 15 9 9 13 151 92 151 84 0 -4 4 -2 8 4 12 18 162
95 173 89 5 -4 8 -1 7 7 -2 7 4 13 12 13 8 0 19 6 23 13 7 10 12 10 23 1 12
-10 13 -9 8 5 -4 9 -1 16 6 16 7 0 25 9 41 21 16 11 34 17 41 13 7 -4 10 -4 6
0 -4 5 2 17 13 29 10 11 20 27 20 34 1 7 2 18 3 24 0 6 12 17 26 24 25 14 24
16 -7 19 -10 1 -22 4 -28 7 -5 3 -20 4 -32 3 -13 0 -23 3 -23 9 0 6 -3 7 -7 4
-3 -4 -23 17 -42 46 l-36 54 -64 -18z"/>
<path d="M5210 4666 c0 -2 7 -7 16 -10 8 -3 12 -2 9 4 -6 10 -25 14 -25 6z"/>
<path d="M5534 4601 c0 -11 5 -17 13 -14 10 4 11 9 2 19 -15 18 -15 18 -15 -5z"/>
<path d="M6621 4582 c1 -4 1 -9 0 -12 -1 -3 -4 -59 -6 -125 -4 -137 -13 -244
-20 -255 -3 -5 4 -12 16 -15 30 -10 163 -86 171 -99 4 -6 8 -7 8 -3 0 5 28 -7
63 -26 95 -53 147 -82 204 -112 29 -16 49 -33 46 -38 -3 -6 -1 -7 5 -4 14 9
43 -3 36 -14 -3 -5 2 -6 10 -3 9 3 16 1 16 -6 0 -6 5 -8 10 -5 6 3 10 1 10 -4
0 -6 3 -10 8 -9 14 3 42 -14 36 -23 -3 -5 3 -6 12 -2 13 5 15 3 9 -7 -5 -9 -4
-11 4 -6 6 4 28 -3 49 -16 20 -12 42 -23 47 -23 6 -1 9 -7 7 -14 -1 -7 2 -10
8 -6 8 5 64 -19 80 -35 5 -5 19 -12 162 -87 38 -19 66 -39 63 -43 -3 -5 0 -12
6 -16 8 -4 9 -3 5 5 -6 9 0 11 20 9 23 -3 31 3 48 37 12 22 25 43 29 46 5 3 8
8 7 10 -3 10 34 85 49 97 9 7 10 11 3 7 -10 -5 -10 -1 0 22 6 15 15 32 20 37
4 6 8 18 8 29 0 11 4 15 12 11 6 -4 8 -3 4 4 -7 12 27 106 36 97 3 -4 6 0 5 7
-1 40 4 59 15 52 7 -4 8 -3 4 4 -3 6 2 35 12 64 10 29 18 60 17 68 0 10 -27
23 -85 39 -47 13 -87 26 -90 30 -3 3 -14 7 -25 8 -11 1 -38 7 -60 13 -22 6
-59 16 -82 21 -24 6 -43 15 -43 19 0 5 -7 6 -17 3 -12 -5 -14 -3 -8 7 6 10 4
12 -8 7 -9 -3 -54 5 -99 18 -46 14 -91 27 -101 30 -59 14 -135 40 -132 45 1 3
-15 6 -36 7 -22 2 -50 8 -62 15 -12 7 -26 11 -31 10 -14 -4 -47 9 -41 17 2 5
-7 6 -20 3 -14 -2 -25 0 -25 4 0 5 -11 10 -25 10 -14 1 -33 5 -43 9 -9 5 -28
10 -42 12 -13 2 -27 7 -30 11 -3 4 -16 9 -30 11 -14 2 -61 14 -105 27 -105 32
-115 34 -114 26z"/>
<path d="M6355 4520 c-3 -5 -1 -10 4 -10 6 0 11 5 11 10 0 6 -2 10 -4 10 -3 0
-8 -4 -11 -10z"/>
<path d="M3677 4313 c-10 -9 -9 -23 1 -23 5 0 9 7 9 15 0 17 -1 18 -10 8z"/>
<path d="M3610 4280 c0 -5 5 -10 11 -10 5 0 7 5 4 10 -3 6 -8 10 -11 10 -2 0
-4 -4 -4 -10z"/>
<path d="M3890 4175 c-7 -9 -19 -14 -27 -11 -8 3 -11 2 -8 -3 8 -14 -34 -40
-54 -34 -12 4 -13 3 -3 -5 10 -7 3 -17 -30 -43 -24 -19 -45 -37 -46 -42 -2 -4
-11 -2 -20 5 -13 11 -14 11 -8 0 10 -17 -29 -56 -46 -46 -6 4 -8 3 -5 -3 8
-13 -31 -45 -45 -37 -6 4 -8 3 -5 -3 4 -6 -13 -27 -37 -46 -33 -28 -46 -33
-55 -24 -10 9 -11 9 -6 -4 7 -19 -29 -54 -46 -43 -7 4 -10 3 -5 -4 3 -5 -13
-25 -36 -44 -24 -18 -54 -43 -68 -55 -25 -23 -46 -31 -35 -14 3 5 1 12 -4 16
-6 3 -8 -3 -6 -15 3 -14 -7 -28 -33 -47 -20 -16 -42 -34 -48 -42 -7 -8 -16
-11 -24 -6 -8 5 -11 4 -7 -2 6 -9 -123 -123 -139 -123 -3 0 -15 -11 -28 -25
-13 -14 -26 -25 -30 -25 -3 0 -14 -8 -24 -17 -32 -31 -75 -66 -137 -113 -33
-25 -68 -53 -77 -63 -27 -30 -111 -86 -120 -81 -4 3 -5 -2 -2 -10 6 -15 -6
-21 -31 -16 -5 1 -7 -2 -3 -6 4 -4 0 -13 -9 -19 -14 -10 -15 -16 -5 -27 6 -8
8 -19 4 -23 -4 -5 -2 -5 4 -2 7 4 20 -5 29 -20 10 -15 29 -37 43 -50 22 -20
23 -25 11 -40 -12 -16 -12 -17 2 -6 13 11 22 6 57 -31 22 -24 38 -47 34 -51
-4 -5 -2 -5 4 -2 13 7 66 -48 56 -58 -4 -4 0 -5 8 -3 8 1 14 -3 12 -10 -1 -6
2 -11 6 -10 14 5 93 -72 87 -82 -3 -5 0 -8 7 -5 7 3 30 -11 52 -30 21 -19 40
-35 43 -35 3 0 13 10 23 22 16 20 20 21 36 8 17 -14 18 -14 5 2 -11 15 -11 22
3 43 9 14 21 25 26 25 6 0 10 4 10 10 0 17 33 49 43 43 6 -3 7 -1 4 4 -8 13
51 89 67 85 6 -2 8 0 4 4 -11 10 32 65 44 58 6 -4 8 -2 4 4 -3 6 0 16 7 24 7
7 21 25 31 40 10 15 23 25 29 21 6 -3 7 -1 3 5 -4 7 -2 12 5 12 7 0 10 3 6 6
-9 9 45 64 57 57 6 -3 8 -3 4 2 -13 14 12 47 30 40 14 -5 15 -4 4 6 -10 11 -6
19 19 41 16 15 27 28 23 28 -4 0 3 11 16 25 12 13 26 22 30 20 4 -3 7 3 6 13
0 9 5 16 12 14 8 -1 11 2 8 6 -8 13 29 54 39 44 5 -4 5 -2 2 4 -4 6 4 23 18
38 14 15 29 36 35 47 6 11 16 16 22 13 6 -4 8 -3 5 3 -4 6 6 25 22 42 16 17
31 38 35 46 3 9 11 13 16 10 6 -4 9 -3 8 2 -4 14 23 54 33 48 5 -4 8 -3 7 2
-4 13 34 63 43 57 5 -3 8 -1 7 4 -4 14 55 92 67 88 12 -4 12 89 0 118 -4 10
-8 36 -9 57 -1 21 -4 39 -8 39 -13 0 -9 35 5 49 10 10 9 12 -2 9 -13 -3 -21
47 -23 140 0 26 -10 28 -28 7z"/>
<path d="M6571 3743 c-1 -26 -8 -54 -14 -62 -7 -8 -7 -12 -1 -8 6 4 10 -2 8
-16 -1 -12 -3 -37 -3 -55 -1 -18 -5 -31 -10 -28 -5 4 -7 -3 -4 -14 5 -20 -15
-177 -25 -195 -3 -5 -7 -20 -8 -33 -2 -14 -6 -32 -10 -41 -8 -19 -10 -29 -12
-59 -1 -16 -6 -21 -14 -16 -7 4 -6 -1 3 -12 9 -10 25 -30 37 -44 11 -14 38
-47 61 -73 23 -27 38 -53 35 -59 -4 -7 -2 -8 4 -4 7 4 12 4 12 -1 0 -4 16 -25
35 -46 19 -21 32 -43 29 -49 -4 -6 -3 -8 3 -5 5 3 18 -6 29 -20 10 -15 25 -32
32 -39 6 -7 12 -15 12 -18 0 -3 11 -17 26 -31 14 -14 22 -30 18 -37 -4 -6 -3
-8 4 -4 6 3 21 -8 33 -26 13 -18 29 -39 35 -45 7 -7 22 -24 33 -39 16 -20 23
-23 39 -15 11 6 22 7 26 3 4 -3 4 1 0 11 -3 9 -2 17 3 17 5 0 24 14 42 31 18
16 40 28 48 25 8 -4 11 -1 8 5 -9 13 25 50 38 42 5 -3 7 -1 3 5 -10 16 15 27
26 11 8 -11 9 -10 4 4 -6 18 25 57 45 57 5 0 7 5 3 12 -5 8 -2 9 10 5 9 -4 15
-3 12 2 -3 5 10 26 29 47 19 22 35 35 35 29 0 -5 6 1 13 15 8 14 19 24 25 23
7 -2 9 4 5 14 -4 11 -3 14 5 9 7 -4 12 -1 12 8 0 8 6 19 13 23 32 19 60 83 37
83 -9 0 -21 9 -73 54 -12 10 -32 25 -44 33 -13 8 -20 19 -17 24 3 5 2 8 -3 7
-14 -4 -54 23 -48 32 3 6 -1 7 -9 4 -11 -4 -16 0 -16 11 0 9 -4 14 -9 10 -5
-3 -16 3 -23 13 -7 10 -23 24 -36 31 -12 7 -20 17 -16 23 4 7 3 8 -4 4 -7 -4
-12 -3 -12 1 0 5 -10 13 -22 18 -13 6 -22 17 -20 24 1 7 -1 10 -6 7 -11 -7
-128 83 -124 95 1 5 -2 8 -7 7 -14 -5 -72 42 -66 53 4 5 -3 9 -14 9 -11 0 -27
10 -35 22 -9 12 -16 19 -16 15 0 -4 -11 2 -25 15 -29 28 -40 37 -83 67 -18 12
-29 27 -26 33 4 6 2 8 -4 4 -6 -3 -16 -1 -24 6 -42 40 -44 40 -47 -9z"/>
<path d="M4615 3689 c-4 -6 -5 -12 -2 -15 2 -3 7 2 10 11 7 17 1 20 -8 4z"/>
<path d="M4805 3660 c-3 -6 1 -7 9 -4 18 7 21 14 7 14 -6 0 -13 -4 -16 -10z"/>
<path d="M4856 3662 c-3 -5 1 -9 9 -9 8 0 12 4 9 9 -3 4 -7 8 -9 8 -2 0 -6 -4
-9 -8z"/>
<path d="M4890 3659 c0 -5 5 -7 10 -4 6 3 10 8 10 11 0 2 -4 4 -10 4 -5 0 -10
-5 -10 -11z"/>
<path d="M2187 3639 c7 -7 15 -10 18 -7 3 3 -2 9 -12 12 -14 6 -15 5 -6 -5z"/>
<path d="M5015 3640 c-3 -5 -1 -10 4 -10 6 0 11 5 11 10 0 6 -2 10 -4 10 -3 0
-8 -4 -11 -10z"/>
<path d="M5095 3640 c-3 -5 -1 -10 4 -10 6 0 11 5 11 10 0 6 -2 10 -4 10 -3 0
-8 -4 -11 -10z"/>
<path d="M5213 3625 c0 -8 4 -12 9 -9 5 3 6 10 3 15 -9 13 -12 11 -12 -6z"/>
<path d="M4730 3619 c0 -5 5 -7 10 -4 6 3 10 8 10 11 0 2 -4 4 -10 4 -5 0 -10
-5 -10 -11z"/>
<path d="M2367 3599 c7 -7 15 -10 18 -7 3 3 -2 9 -12 12 -14 6 -15 5 -6 -5z"/>
<path d="M5410 3580 c0 -5 5 -10 11 -10 5 0 7 5 4 10 -3 6 -8 10 -11 10 -2 0
-4 -4 -4 -10z"/>
<path d="M5453 3575 c0 -8 4 -12 9 -9 5 3 6 10 3 15 -9 13 -12 11 -12 -6z"/>
<path d="M5490 3580 c0 -5 5 -10 11 -10 5 0 7 5 4 10 -3 6 -8 10 -11 10 -2 0
-4 -4 -4 -10z"/>
<path d="M5600 3571 c0 -6 4 -13 10 -16 6 -3 7 1 4 9 -7 18 -14 21 -14 7z"/>
<path d="M4115 3442 c-6 -4 -19 -25 -30 -47 -11 -22 -26 -46 -32 -53 -7 -7
-13 -18 -13 -23 0 -6 -4 -7 -10 -4 -5 3 -7 0 -4 -8 3 -8 -2 -21 -10 -30 -8 -8
-12 -17 -9 -21 4 -3 0 -6 -7 -6 -7 0 -10 -3 -7 -6 6 -6 -19 -61 -34 -74 -3 -3
-15 -27 -28 -53 -19 -43 -24 -47 -39 -35 -15 12 -16 11 -3 -4 11 -16 6 -30
-43 -120 -31 -56 -56 -105 -56 -110 0 -4 -5 -8 -11 -8 -5 0 -7 -5 -4 -10 3 -6
-1 -13 -9 -16 -9 -3 -14 -10 -11 -14 3 -5 -2 -15 -10 -24 -9 -8 -16 -19 -16
-23 -2 -12 -40 -85 -60 -114 -10 -14 -16 -29 -12 -33 3 -3 1 -6 -5 -6 -7 0
-11 -6 -9 -12 1 -7 -4 -12 -11 -10 -8 1 -11 -2 -8 -7 11 -16 -5 -40 -22 -34
-13 4 -14 3 -4 -5 11 -7 9 -16 -7 -43 -11 -19 -31 -55 -44 -82 -13 -26 -26
-44 -30 -41 -4 4 -7 -5 -7 -20 0 -19 7 -29 26 -36 14 -6 23 -14 20 -19 -4 -5
3 -7 14 -4 11 3 20 1 20 -3 0 -5 9 -15 21 -22 12 -8 18 -9 15 -3 -4 6 24 -5
61 -23 37 -18 91 -41 118 -52 28 -10 53 -22 56 -27 3 -5 9 -8 13 -8 20 3 26 0
20 -11 -4 -7 -3 -8 4 -4 14 8 95 -12 88 -22 -2 -4 6 -8 17 -8 32 -2 78 -14 98
-25 10 -5 20 -6 22 -2 9 15 40 128 38 137 -1 5 6 6 15 2 13 -5 14 -3 6 6 -12
15 14 124 36 151 10 12 10 16 0 20 -11 4 -10 6 0 6 7 1 10 6 7 12 -4 5 1 20
12 31 10 12 13 19 7 15 -10 -6 37 171 52 195 4 6 3 8 -3 5 -12 -8 -36 17 -26
26 3 4 2 7 -3 7 -12 0 -48 59 -41 67 3 2 -3 13 -14 24 -21 21 -26 44 -6 34 6
-4 4 0 -7 9 -11 9 -16 22 -12 31 3 9 2 13 -4 10 -6 -3 -11 3 -11 14 -2 23 -3
29 -12 51 -16 42 -25 115 -15 128 9 10 8 12 -2 10 -13 -3 -15 13 -24 185 -4
67 -2 86 7 80 9 -5 9 -3 1 8 -12 14 -12 79 0 98 8 13 5 14 -9 3z"/>
<path d="M2310 2801 c0 -6 4 -13 10 -16 6 -3 7 1 4 9 -7 18 -14 21 -14 7z"/>
<path d="M6240 2772 c0 -7 -5 -10 -12 -6 -6 4 -8 3 -4 -4 3 -6 -8 -21 -26 -33
-18 -13 -41 -32 -50 -43 -10 -10 -18 -15 -18 -10 0 5 -5 1 -11 -8 -5 -10 -17
-18 -24 -18 -8 0 -15 -4 -15 -10 0 -5 -6 -10 -14 -10 -8 0 -17 -7 -20 -16 -4
-9 -9 -14 -13 -11 -3 4 -19 -3 -35 -14 -16 -12 -40 -22 -53 -23 -13 0 -21 -4
-19 -7 6 -10 -26 -20 -38 -12 -7 3 -8 1 -4 -5 4 -8 -1 -13 -13 -13 -12 -1 -27
-2 -33 -3 -7 -1 -19 -7 -27 -14 -11 -10 -16 -10 -27 5 -13 17 -14 17 -8 1 4
-13 1 -18 -10 -18 -16 0 -18 -23 -3 -60 9 -25 66 -216 70 -236 2 -10 7 -26 10
-34 3 -8 11 -32 17 -52 13 -43 13 -43 70 -23 23 8 46 12 51 9 5 -3 9 0 9 6 0
7 7 10 15 6 8 -3 15 -2 15 2 0 11 101 42 113 35 6 -3 7 -1 4 4 -7 11 37 28 62
24 7 -1 11 2 8 6 -3 5 9 15 26 22 18 7 50 22 72 34 22 12 41 20 43 19 1 -1 16
5 32 13 17 9 35 13 41 10 5 -4 8 -1 7 7 -2 7 3 12 10 10 6 -1 12 2 12 7 0 5 9
12 19 16 11 3 19 14 18 25 -1 10 -4 17 -8 14 -10 -6 -20 26 -12 38 3 7 1 8 -5
4 -7 -4 -14 3 -18 19 -3 14 -10 25 -16 25 -5 0 -7 4 -4 9 4 5 2 11 -3 13 -15
5 -101 174 -93 183 4 5 2 5 -4 2 -13 -8 -47 60 -38 76 4 7 3 9 -1 4 -5 -4 -17
5 -27 20 -10 16 -18 22 -18 15z"/>
<path d="M4719 2516 c-1 -6 -1 -14 0 -18 0 -5 -3 -8 -8 -8 -5 0 -7 -9 -4 -20
3 -11 0 -26 -6 -34 -8 -10 -9 -16 -1 -21 6 -3 8 -10 6 -14 -3 -4 -7 -29 -10
-56 -13 -118 -18 -181 -18 -198 0 -9 -2 -16 -6 -13 -4 2 -6 -17 -6 -42 1 -26
-4 -53 -10 -61 -7 -10 -7 -13 0 -8 7 4 9 -4 6 -24 -3 -20 0 -29 9 -30 8 -1 23
-3 34 -5 11 -2 60 -6 109 -9 49 -3 96 -11 105 -18 10 -8 13 -8 8 0 -5 8 20 11
94 12 56 1 105 4 110 7 5 3 9 -1 9 -8 0 -8 3 -9 8 -3 4 6 27 11 52 12 25 0 52
3 60 4 9 3 14 -2 12 -11 -2 -11 1 -11 12 3 7 10 20 16 27 15 9 -2 13 6 12 22
-2 48 -15 165 -22 218 -6 36 -5 52 3 52 7 0 7 3 -1 8 -6 4 -14 39 -17 77 -4
39 -8 79 -10 90 -2 11 -4 27 -5 36 -1 13 -15 17 -68 19 -38 2 -78 3 -90 2 -13
0 -23 5 -23 10 0 7 -5 6 -13 -1 -8 -6 -16 -9 -18 -7 -2 2 -44 7 -94 11 -49 4
-93 12 -97 19 -6 8 -8 7 -8 -2 0 -7 -5 -10 -10 -7 -20 12 -130 13 -131 1z"/>
<path d="M6470 1881 c0 -6 4 -13 10 -16 6 -3 7 1 4 9 -7 18 -14 21 -14 7z"/>
<path d="M5969 1683 c-13 -16 -12 -17 4 -4 16 13 21 21 13 21 -2 0 -10 -8 -17
-17z"/>
<path d="M3736 8878 c3 -5 10 -6 15 -3 13 9 11 12 -6 12 -8 0 -12 -4 -9 -9z"/>
<path d="M6730 8679 c0 -5 5 -7 10 -4 6 3 10 8 10 11 0 2 -4 4 -10 4 -5 0 -10
-5 -10 -11z"/>
<path d="M7516 8173 c-6 -14 -5 -15 5 -6 7 7 10 15 7 18 -3 3 -9 -2 -12 -12z"/>
<path d="M2396 8113 c-6 -14 -5 -15 5 -6 7 7 10 15 7 18 -3 3 -9 -2 -12 -12z"/>
<path d="M1070 5999 c0 -5 5 -7 10 -4 6 3 10 8 10 11 0 2 -4 4 -10 4 -5 0 -10
-5 -10 -11z"/>
<path d="M956 5418 c3 -5 10 -6 15 -3 13 9 11 12 -6 12 -8 0 -12 -4 -9 -9z"/>
<path d="M995 4809 c-4 -6 -5 -12 -2 -15 2 -3 7 2 10 11 7 17 1 20 -8 4z"/>
<path d="M1030 4376 c0 -2 8 -10 18 -17 15 -13 16 -12 3 4 -13 16 -21 21 -21
13z"/>
<path d="M8866 4042 c-3 -5 1 -9 9 -9 8 0 12 4 9 9 -3 4 -7 8 -9 8 -2 0 -6 -4
-9 -8z"/>
<path d="M8013 2435 c0 -8 4 -12 9 -9 5 3 6 10 3 15 -9 13 -12 11 -12 -6z"/>
<path d="M6190 1239 c0 -5 5 -7 10 -4 6 3 10 8 10 11 0 2 -4 4 -10 4 -5 0 -10
-5 -10 -11z"/>
</g>
</svg>
